<svg width="120" height="76" viewBox="0 0 120 76" fill="none" xmlns="http://www.w3.org/2000/svg">
  <path fill-rule="evenodd" clip-rule="evenodd" d="M118 0.5H2C0.895431 0.5 0 1.39543 0 2.5V68C0 72.1421 3.35786 75.5 7.5 75.5H112.5C116.642 75.5 120 72.1421 120 68V2.5C120 1.39543 119.105 0.5 118 0.5ZM103.125 19.25H64.375C62.6491 19.25 61.25 20.6491 61.25 22.375C61.25 24.1009 62.6491 25.5 64.375 25.5H103.125C104.851 25.5 106.25 24.1009 106.25 22.375C106.25 20.6491 104.851 19.25 103.125 19.25ZM64.375 49.25H81.875C83.6009 49.25 85 50.6491 85 52.375C85 54.1009 83.6009 55.5 81.875 55.5H64.375C62.6491 55.5 61.25 54.1009 61.25 52.375C61.25 50.6491 62.6491 49.25 64.375 49.25ZM103.125 34.25H64.375C62.6491 34.25 61.25 35.6491 61.25 37.375C61.25 39.1009 62.6491 40.5 64.375 40.5H103.125C104.851 40.5 106.25 39.1009 106.25 37.375C106.25 35.6491 104.851 34.25 103.125 34.25ZM16.6641 15.5C14.3643 15.5 12.5 17.4352 12.5 19.8224V52.8564C12.5 54.3925 13.273 55.7401 14.4302 56.5045C14.7907 56.7427 15.2314 56.8114 15.6434 56.6937C16.0554 56.576 16.4002 56.2828 16.5925 55.8866C18.4741 52.0097 21.5895 48.9825 25.3391 47.4139C25.8471 47.2013 26.2047 46.7202 26.2738 46.1562C26.343 45.5921 26.1128 45.0334 25.6722 44.6955C23.3319 42.9011 21.815 40.0113 21.815 36.7491C21.815 31.3008 26.0464 26.8977 31.25 26.8977C36.4536 26.8977 40.685 31.3008 40.685 36.7491C40.685 40.0113 39.1681 42.9011 36.8278 44.6955C36.3872 45.0334 36.157 45.5921 36.2262 46.1562C36.2953 46.7202 36.6529 47.2013 37.1609 47.4139C40.9105 48.9825 44.0259 52.0097 45.9076 55.8866C46.0998 56.2828 46.4446 56.576 46.8566 56.6937C47.2686 56.8114 47.7093 56.7427 48.0699 56.5045C49.227 55.7401 50 54.3925 50 52.8564V19.8224C50 17.4352 48.1357 15.5 45.8359 15.5H16.6641Z" fill="white"/>
</svg>
