<svg width="120" height="75" viewBox="0 0 120 75" fill="none" xmlns="http://www.w3.org/2000/svg">
  <path fill-rule="evenodd" clip-rule="evenodd" d="M6 0C2.68629 0 0 2.68629 0 6V73C0 74.1046 0.895429 75 2 75H118C119.105 75 120 74.1046 120 73V6C120 2.68629 117.314 0 114 0H6ZM88.125 56.25H103.125C104.851 56.25 106.25 57.6491 106.25 59.375C106.25 61.1009 104.851 62.5 103.125 62.5H88.125C86.3991 62.5 85 61.1009 85 59.375C85 57.6491 86.3991 56.25 88.125 56.25ZM55.625 13.75H15.625C13.8991 13.75 12.5 15.1491 12.5 16.875C12.5 18.6009 13.8991 20 15.625 20H55.625C57.3509 20 58.75 18.6009 58.75 16.875C58.75 15.1491 57.3509 13.75 55.625 13.75ZM15.625 26.25H40.625C42.3509 26.25 43.75 27.6491 43.75 29.375C43.75 31.1009 42.3509 32.5 40.625 32.5H15.625C13.8991 32.5 12.5 31.1009 12.5 29.375C12.5 27.6491 13.8991 26.25 15.625 26.25Z" fill="white"/>
</svg>
