<svg width="250" height="35" viewBox="0 0 250 35" fill="none" xmlns="http://www.w3.org/2000/svg">
  <g clip-path="url(#clip0_8986_5341)">
    <path fill-rule="evenodd" clip-rule="evenodd" d="M30.8268 6.40102L34.8332 16.3763C35.0028 16.7979 35.0874 17.2488 35.0819 17.7031C35.0768 18.1574 34.9818 18.6063 34.8022 19.0239L30.5627 28.9062C30.3837 29.3233 30.1241 29.7012 29.7988 30.0183C29.4735 30.3354 29.0887 30.5855 28.6665 30.7542L18.6644 34.7519C18.2421 34.9209 17.7906 35.0049 17.3357 34.9998C16.8807 34.9944 16.4313 34.8999 16.013 34.7211L6.1074 30.4907C5.26302 30.1299 4.59673 29.4495 4.25491 28.599L0.248638 18.6205C0.0793874 18.1993 -0.00505014 17.749 0.000233488 17.2952C0.00551711 16.8415 0.100409 16.3932 0.279421 15.9761L4.51908 6.09299C4.8807 5.25065 5.56275 4.58595 6.41532 4.24493L16.4173 0.248042C16.8396 0.0791675 17.2912 -0.00503811 17.7462 0.000233017C18.2011 0.00550414 18.6506 0.100149 19.0688 0.278763L28.9744 4.50847C29.3926 4.68703 29.7716 4.94606 30.0894 5.27079C30.4073 5.59556 30.6579 5.97959 30.8268 6.40102ZM25.0643 24.3459C25.835 23.9504 26.6756 23.5189 27.5977 23.015C29.1171 22.1888 30.2223 20.7603 30.5027 19.4538C30.8107 18.1345 30.2904 16.938 29.2467 16.2815C26.8637 14.7587 25.885 12.8611 24.4046 9.99076C24.0082 9.2223 23.5759 8.38415 23.0711 7.46478C22.247 5.94816 20.8151 4.84383 19.5056 4.56654C18.1831 4.25854 16.9838 4.77835 16.3258 5.81962C14.7997 8.19646 12.8981 9.17247 10.0221 10.6487C9.25132 11.0443 8.41055 11.4758 7.48823 11.9799C5.96803 12.8069 4.86188 14.2354 4.58312 15.5418C4.2752 16.8604 4.79542 18.0577 5.83915 18.7133C8.22213 20.2362 9.20087 22.1338 10.6813 25.0041C11.0776 25.7726 11.5099 26.6107 12.0147 27.5301C12.8389 29.0467 14.2708 30.151 15.5802 30.4283C16.9027 30.7363 18.102 30.2173 18.76 29.176C20.2862 26.7984 22.188 25.8223 25.0643 24.3459Z" fill="#0062F2"/>
    <path d="M62.4657 23.7146L55.7037 6.37256H51.2012V28.9429H54.2739V11.1916L61.2811 29.0382H63.5232L70.5931 11.0327V28.9429H73.7606V6.37256H69.2274L62.4657 23.7146Z" fill="#0062F2"/>
    <path d="M83.1325 6.37256H79.8076V28.9429H83.1325V6.37256Z" fill="#0062F2"/>
    <path d="M127.593 17.637C128.5 16.3691 128.983 14.8404 128.973 13.2739C128.973 11.4266 128.178 9.70392 126.733 8.42134C125.243 7.10026 123.172 6.37573 120.893 6.37573H111.715V28.946H115.04V20.874H120.425L125.123 28.9427H129.069L124.042 20.3193C125.46 19.7999 126.696 18.8668 127.593 17.637ZM125.585 13.3057C125.592 13.8981 125.483 14.486 125.262 15.0345C125.042 15.583 124.715 16.0811 124.301 16.4992C123.455 17.3442 122.267 17.8094 120.957 17.8094H115.036V9.47134H120.957C123.595 9.47134 125.585 11.1187 125.585 13.3057Z" fill="#0062F2"/>
    <path d="M143.07 5.99097C139.949 5.99097 137.136 7.21499 135.136 9.43629C133.212 11.5781 132.152 14.498 132.152 17.6572C132.152 20.8164 133.212 23.7522 135.136 25.8907C137.129 28.1045 139.946 29.321 143.07 29.321C146.207 29.321 149.035 28.1011 151.031 25.8907C152.958 23.7547 154.019 20.8306 154.019 17.6572C154.019 14.4838 152.958 11.5764 151.032 9.43629C149.031 7.21247 146.204 5.99097 143.07 5.99097ZM143.07 26.1618C142.046 26.1657 141.033 25.945 140.101 25.5148C139.168 25.0847 138.338 24.4552 137.668 23.6694C136.296 22.0889 135.541 19.953 135.541 17.6572C135.541 15.3614 136.296 13.2422 137.668 11.6568C139.065 10.042 140.983 9.15266 143.07 9.15266C145.157 9.15266 147.083 10.042 148.488 11.6576C149.869 13.2472 150.631 15.3757 150.631 17.6572C150.631 19.9388 149.87 22.0856 148.488 23.6694C147.814 24.4551 146.981 25.0843 146.046 25.5143C145.111 25.9444 144.096 26.1652 143.07 26.1618Z" fill="#0062F2"/>
    <path d="M172.244 17.1034C174.183 16.0158 175.335 14.1082 175.335 11.9714C175.335 8.67499 172.45 6.37256 168.329 6.37256H158.579V28.9429H168.799C172.859 28.9429 175.805 26.2003 175.805 22.422C175.808 20.1555 174.447 18.1316 172.244 17.1034ZM168.896 25.8447H161.902V18.842H168.42C170.81 18.842 172.418 20.1413 172.418 22.074C172.42 24.3639 171.036 25.8447 168.896 25.8447ZM168.044 15.8049H161.902V9.47151H168.42C170.563 9.47151 171.944 10.6026 171.944 12.3537C171.947 14.0731 170.74 15.8066 168.044 15.8066V15.8049Z" fill="#0062F2"/>
    <path d="M183.92 6.37256H180.594V28.9429H195.145V25.7812H183.92V6.37256Z" fill="#0062F2"/>
    <path d="M202.18 6.37256H198.854V28.9429H202.18V6.37256Z" fill="#0062F2"/>
    <path d="M223.067 23.0712L211.48 6.44281L211.43 6.37256H208.216V28.9429H211.352V11.4175L223.557 28.9429H226.203V6.37256H223.067V23.0712Z" fill="#0062F2"/>
    <path d="M241.061 16.3028L249.763 6.37256H245.695L235.56 17.9175V6.37256H232.234V28.9429H235.56V22.391L238.786 18.7499L245.968 28.9429H250L241.061 16.3028Z" fill="#0062F2"/>
    <path d="M104.791 21.3067C103.308 24.7319 101.405 26.1936 98.4144 26.1936C96.3711 26.1936 94.4994 25.3075 93.1441 23.6995C91.8098 22.1157 91.0746 19.9697 91.0746 17.6572C91.0746 15.3623 91.7933 13.2305 93.0974 11.6543C94.4327 10.0412 96.287 9.15266 98.3205 9.15266C101.075 9.15266 103.089 10.5457 104.479 13.4112L104.538 13.5325H108.017L108.001 13.4346C107.918 12.9594 107.747 12.5143 107.581 12.0776L107.528 11.937C106.816 10.1412 105.572 8.61477 103.967 7.56972C102.364 6.52224 100.432 5.99097 98.2257 5.99097C95.2089 5.99097 92.4874 7.21499 90.5604 9.43881C88.7067 11.579 87.6855 14.498 87.6855 17.6572C87.6855 20.8591 88.7124 23.7907 90.5768 25.9124C92.5386 28.1446 95.2263 29.3243 98.3508 29.3243C100.54 29.3243 102.464 28.7487 104.069 27.6142C104.339 27.4237 104.599 27.2184 104.846 26.9993C106.474 25.5619 107.707 23.518 108.143 21.5309L108.154 21.479C108.169 21.4104 108.182 21.3418 108.193 21.2732L108.21 21.1753H104.844L104.791 21.3067Z" fill="#0062F2"/>
  </g>
  <defs>
    <clipPath id="clip0_8986_5341">
      <rect width="250" height="35" fill="white"/>
    </clipPath>
  </defs>
</svg>
