<svg width="95" height="28" viewBox="0 0 95 28" fill="none" xmlns="http://www.w3.org/2000/svg">
  <path d="M25.0876 7.57155C26.4016 7.57155 27.2656 6.68055 27.2656 5.41155C27.2656 4.12455 26.4106 3.26055 25.0876 3.26055H22.4866V9.83955H23.6386V7.57155H25.0876ZM24.8626 4.28655C25.6276 4.28655 26.0596 4.68255 26.0596 5.40255C26.0596 6.12255 25.6366 6.54555 24.8446 6.54555H23.6386V4.28655H24.8626Z" fill="white"/>
  <path d="M27.772 7.60755C27.772 8.99356 28.771 9.94755 30.148 9.94755C31.525 9.94755 32.524 8.99356 32.524 7.60755C32.524 6.22155 31.525 5.26755 30.148 5.26755C28.771 5.26755 27.772 6.22155 27.772 7.60755ZM28.87 7.60755C28.87 6.79755 29.392 6.24855 30.148 6.24855C30.904 6.24855 31.426 6.79755 31.426 7.60755C31.426 8.41755 30.904 8.96655 30.148 8.96655C29.392 8.96655 28.87 8.41755 28.87 7.60755Z" fill="white"/>
  <path d="M34.3356 9.83955H35.4066L36.0186 7.93155C36.2436 7.20255 36.3246 6.88755 36.3696 6.68055C36.4056 6.90556 36.5046 7.32855 36.6846 7.91355L37.2966 9.83955H38.3226L39.8616 5.39355H38.7006L38.1066 7.30155C38.0256 7.58055 37.8816 8.11155 37.8096 8.44455C37.7556 8.14755 37.5756 7.48155 37.5216 7.30155L36.9276 5.39355H35.8116L35.1996 7.30155C35.0556 7.74255 34.9746 8.02155 34.8936 8.45355C34.8126 8.03955 34.7226 7.65255 34.6236 7.30155L34.0386 5.39355H32.8956L34.3356 9.83955Z" fill="white"/>
  <path d="M42.4757 9.95655C43.6367 9.95655 44.4467 9.37155 44.6357 8.39955H43.6187C43.4927 8.82255 43.0967 9.05655 42.4937 9.05655C41.7647 9.05655 41.3507 8.66055 41.2697 7.87755L44.6177 7.86855V7.53555C44.6177 6.14955 43.7717 5.25855 42.4397 5.25855C41.1347 5.25855 40.2257 6.22155 40.2257 7.61655C40.2257 8.99356 41.1527 9.95655 42.4757 9.95655ZM42.4487 6.15855C43.1057 6.15855 43.5287 6.56355 43.5287 7.17555H41.2967C41.4047 6.50955 41.8007 6.15855 42.4487 6.15855Z" fill="white"/>
  <path d="M48.4665 5.37555C48.2865 5.33055 48.1335 5.31255 47.9805 5.31255C47.3865 5.31255 46.9635 5.60955 46.7745 6.05055L46.7115 5.40255H45.6765V9.83955H46.7745V7.67955C46.7745 6.81555 47.2695 6.39255 48.0615 6.39255H48.4665V5.37555Z" fill="white"/>
  <path d="M51.2293 9.95655C52.3903 9.95655 53.2003 9.37155 53.3893 8.39955H52.3723C52.2463 8.82255 51.8503 9.05655 51.2473 9.05655C50.5183 9.05655 50.1043 8.66055 50.0233 7.87755L53.3713 7.86855V7.53555C53.3713 6.14955 52.5253 5.25855 51.1933 5.25855C49.8883 5.25855 48.9793 6.22155 48.9793 7.61655C48.9793 8.99356 49.9063 9.95655 51.2293 9.95655ZM51.2023 6.15855C51.8593 6.15855 52.2823 6.56355 52.2823 7.17555H50.0503C50.1583 6.50955 50.5543 6.15855 51.2023 6.15855Z" fill="white"/>
  <path d="M56.257 9.95655C56.932 9.95655 57.508 9.65955 57.778 9.14655L57.85 9.83955H58.858V3.14355H57.769V5.96055C57.49 5.51955 56.941 5.25855 56.32 5.25855C54.979 5.25855 54.169 6.24855 54.169 7.63455C54.169 9.01155 54.97 9.95655 56.257 9.95655ZM56.5 8.94855C55.735 8.94855 55.267 8.39055 55.267 7.59855C55.267 6.80655 55.735 6.23955 56.5 6.23955C57.265 6.23955 57.76 6.79755 57.76 7.59855C57.76 8.39955 57.265 8.94855 56.5 8.94855Z" fill="white"/>
  <path d="M63.8051 9.83955L63.8771 9.14655C64.1381 9.65955 64.7051 9.95655 65.3711 9.95655C66.6491 9.95655 67.4861 9.01155 67.4861 7.64355C67.4861 6.23955 66.7121 5.24955 65.4431 5.24955C64.7681 5.24955 64.1741 5.54655 63.8861 6.04155V3.14355H62.7881V9.83955H63.8051ZM63.8951 7.59855C63.8951 6.79755 64.3901 6.23955 65.1461 6.23955C65.9201 6.23955 66.3791 6.80655 66.3791 7.59855C66.3791 8.39055 65.9201 8.94855 65.1461 8.94855C64.3901 8.94855 63.8951 8.39955 63.8951 7.59855Z" fill="white"/>
  <path d="M67.9863 11.9006C68.2293 11.9636 68.4993 11.9996 68.8053 11.9996C69.5343 11.9996 70.0023 11.6576 70.3353 10.8296L72.5133 5.39355H71.3793L70.1733 8.63355L69.0303 5.39355H67.8693L69.6603 10.0286L69.5343 10.3616C69.3453 10.8836 69.0753 10.9826 68.6433 10.9826H67.9863V11.9006Z" fill="white"/>
  <g clip-path="url(#clip0_4708_7144)">
    <path d="M9.81633 23.5954L6.92519 16.1631H5V25.8361H6.31377V18.2284L9.30993 25.877H10.2685L13.2914 18.1603V25.8361H14.6457V16.1631H12.7075L9.81633 23.5954Z" fill="white"/>
    <path d="M18.6529 16.1631H17.2313V25.8361H18.6529V16.1631Z" fill="white"/>
    <path d="M37.6628 20.9913C38.0502 20.4479 38.2569 19.7927 38.2527 19.1214C38.2527 18.3297 37.9126 17.5914 37.2948 17.0417C36.6577 16.4756 35.7721 16.165 34.798 16.165H30.8737V25.838H32.2953V22.3786H34.5979L36.6066 25.8366H38.2939L36.1442 22.1409C36.7507 21.9183 37.2789 21.5183 37.6628 20.9913ZM36.8039 19.135C36.8071 19.3889 36.7602 19.6409 36.666 19.8759C36.5717 20.111 36.432 20.3245 36.2552 20.5037C35.8933 20.8658 35.3855 21.0652 34.8252 21.0652H32.2935V17.4917H34.8252C35.9532 17.4917 36.8039 18.1977 36.8039 19.135Z" fill="white"/>
    <path d="M44.2803 16C42.9461 16 41.743 16.5246 40.888 17.4766C40.0655 18.3945 39.6123 19.6459 39.6123 20.9998C39.6123 22.3538 40.0655 23.612 40.888 24.5285C41.7401 25.4772 42.9447 25.9986 44.2803 25.9986C45.6215 25.9986 46.8306 25.4758 47.6842 24.5285C48.5081 23.613 48.9616 22.3599 48.9616 20.9998C48.9616 19.6398 48.5081 18.3938 47.6845 17.4766C46.8292 16.5235 45.6201 16 44.2803 16ZM44.2803 24.6446C43.8424 24.6463 43.4093 24.5517 43.0107 24.3674C42.6121 24.183 42.2573 23.9132 41.9706 23.5765C41.3842 22.8991 41.061 21.9837 41.061 20.9998C41.061 20.0159 41.3842 19.1077 41.9706 18.4282C42.5679 17.7362 43.388 17.355 44.2803 17.355C45.1726 17.355 45.9961 17.7362 46.597 18.4286C47.1876 19.1098 47.5132 20.022 47.5132 20.9998C47.5132 21.9776 47.188 22.8977 46.597 23.5765C46.3087 23.9132 45.9527 24.1829 45.5529 24.3672C45.1532 24.5515 44.7191 24.6461 44.2803 24.6446Z" fill="white"/>
    <path d="M56.754 20.762C57.5832 20.2959 58.0759 19.4784 58.0759 18.5626C58.0759 17.1499 56.8425 16.1631 55.0805 16.1631H50.9115V25.8361H55.2813C57.0173 25.8361 58.2768 24.6607 58.2768 23.0414C58.2782 22.0701 57.696 21.2027 56.754 20.762ZM55.3226 24.5083H52.3324V21.5071H55.1192C56.1412 21.5071 56.8284 22.064 56.8284 22.8923C56.8295 23.8737 56.2378 24.5083 55.3226 24.5083ZM54.9585 20.2055H52.3324V17.4912H55.1192C56.0355 17.4912 56.6261 17.976 56.6261 18.7265C56.6272 19.4633 56.1112 20.2063 54.9585 20.2063V20.2055Z" fill="white"/>
    <path d="M61.7462 16.1631H60.3242V25.8361H66.5456V24.4811H61.7462V16.1631Z" fill="white"/>
    <path d="M69.5537 16.1631H68.1318V25.8361H69.5537V16.1631Z" fill="white"/>
    <path d="M78.4844 23.3197L73.5299 16.1932L73.5088 16.1631H72.1344V25.8361H73.4753V18.3252L78.6937 25.8361H79.8253V16.1631H78.4844V23.3197Z" fill="white"/>
    <path d="M86.1778 20.4189L89.8985 16.1631H88.1594L83.8258 21.1109V16.1631H82.4039V25.8361H83.8258V23.0282L85.2051 21.4677L88.276 25.8361H90L86.1778 20.4189Z" fill="white"/>
    <path d="M27.9134 22.5639C27.2791 24.0318 26.4654 24.6583 25.1869 24.6583C24.3133 24.6583 23.5129 24.2785 22.9336 23.5894C22.363 22.9106 22.0487 21.9909 22.0487 20.9998C22.0487 20.0163 22.356 19.1027 22.9135 18.4271C23.4844 17.7358 24.2773 17.355 25.1467 17.355C26.3244 17.355 27.1857 17.952 27.7799 19.1801L27.8053 19.2321H29.2928L29.2857 19.1901C29.2505 18.9865 29.1772 18.7957 29.1063 18.6086L29.0834 18.5483C28.7793 17.7787 28.2472 17.1245 27.561 16.6766C26.8756 16.2277 26.0496 16 25.1062 16C23.8164 16 22.6527 16.5246 21.8288 17.4776C21.0362 18.3948 20.5996 19.6459 20.5996 20.9998C20.5996 22.372 21.0387 23.6285 21.8359 24.5378C22.6746 25.4944 23.8238 26 25.1597 26C26.0957 26 26.9182 25.7533 27.6047 25.2671C27.7201 25.1854 27.8311 25.0975 27.9371 25.0035C28.6331 24.3875 29.1603 23.5116 29.3467 22.66L29.3513 22.6377C29.3576 22.6083 29.3632 22.5789 29.3682 22.5495L29.3752 22.5076H27.936L27.9134 22.5639Z" fill="white"/>
  </g>
  <defs>
    <clipPath id="clip0_4708_7144">
      <rect width="85" height="10" fill="white" transform="translate(5 16)"/>
    </clipPath>
  </defs>
</svg>
