<svg width="280" height="197" viewBox="0 0 280 197" fill="none" xmlns="http://www.w3.org/2000/svg">
<path d="M150 175.5C150 182.956 143.956 189 136.5 189C129.045 189 123 182.956 123 175.5C123 168.044 129.045 162 136.5 162C143.956 162 150 168.044 150 175.5Z" fill="#10B990"/>
<path d="M239.717 153.996H36.2832C30.6155 153.996 26 149.422 26 143.796V22.2005C26 16.5784 30.6105 12 36.2832 12H239.717C245.384 12 250 16.5744 250 22.2005V143.799C250 149.422 245.388 154 239.717 154V153.996ZM36.2832 14.324C31.9012 14.324 28.3378 17.8587 28.3378 22.2055V143.799C28.3378 148.146 31.9012 151.681 36.2832 151.681H239.717C244.098 151.681 247.661 148.146 247.661 143.799V22.2005C247.661 17.8547 244.098 14.32 239.717 14.32H36.2832V14.324Z" fill="#10B990"/>
<path d="M142.651 171.333C142.541 171.228 142.411 171.144 142.267 171.087C142.123 171.029 141.969 171 141.813 171C141.657 171 141.503 171.029 141.359 171.087C141.215 171.144 141.084 171.228 140.974 171.333L134.74 177.295L132.025 174.699C131.915 174.594 131.784 174.51 131.64 174.453C131.496 174.395 131.342 174.366 131.186 174.366C131.031 174.366 130.876 174.395 130.732 174.453C130.589 174.51 130.458 174.594 130.348 174.699C130.238 174.804 130.15 174.929 130.09 175.067C130.031 175.204 130 175.352 130 175.501C130 175.65 130.031 175.798 130.09 175.935C130.15 176.073 130.238 176.198 130.348 176.303L133.864 179.669C134.095 179.891 134.399 180 134.702 180H134.777C135.081 180 135.384 179.891 135.616 179.669L142.651 172.942C142.762 172.837 142.85 172.712 142.909 172.574C142.969 172.437 143 172.289 143 172.14C143 171.991 142.969 171.843 142.909 171.706C142.85 171.568 142.762 171.443 142.651 171.338V171.333Z" fill="white"/>
<path opacity="0.3" d="M224.891 30H45.1076C40.0776 30 36 34.0657 36 39.0802V134.92C36 139.934 40.0776 144 45.1076 144H224.891C229.922 144 234 139.934 234 134.92V39.0802C234 34.0657 229.922 30 224.891 30Z" fill="#142641"/>
<path d="M228.892 24H49.1086C44.0776 24 40 28.0647 40 33.0803V128.92C40 133.935 44.0776 138 49.1086 138H228.892C233.922 138 238 133.935 238 128.92V33.0803C238 28.0657 233.922 24 228.892 24Z" fill="white"/>
<path d="M228.741 139H49.2589C43.6046 139 39 134.419 39 128.785V33.2155C39 27.5847 43.5996 23 49.2589 23H228.741C234.395 23 239 27.5807 239 33.2155V128.785C239 134.415 234.399 139 228.741 139ZM49.2589 25.3268C44.8872 25.3268 41.3323 28.8675 41.3323 33.2205V128.789C41.3323 133.142 44.8872 136.682 49.2589 136.682H228.741C233.112 136.682 236.667 133.142 236.667 128.789V33.2155C236.667 28.8625 233.112 25.3228 228.741 25.3228H49.2589V25.3268Z" fill="#142641"/>
<path d="M81.0005 82C72.1791 82 65 74.8221 65 66C65 57.1779 72.1791 50 81.0005 50C89.8219 50 97 57.1779 97 66C97 74.8211 89.8219 82 81.0005 82ZM81.0005 52.3378C73.4673 52.3378 67.3344 58.4657 67.3344 66.004C67.3344 73.5423 73.4623 79.6713 81.0005 79.6713C88.5377 79.6713 94.6666 73.5423 94.6666 66.004C94.6666 58.4657 88.5387 52.3378 81.0005 52.3378Z" fill="#142641"/>
<path d="M106.989 102.79C106.346 102.79 105.824 102.267 105.824 101.622C105.824 91.202 94.9458 82.7265 81.5763 82.7265C68.2068 82.7265 57.3289 91.201 57.3289 101.622C57.3289 102.267 56.8068 102.79 56.164 102.79C55.5211 102.79 55 102.267 55 101.622C55 89.9146 66.9211 80.3881 81.5763 80.3881C96.2315 80.3881 108.153 89.9156 108.153 101.622C108.153 102.267 107.632 102.79 106.989 102.79ZM208.213 59.4462H122.288C121.979 59.4465 121.684 59.3235 121.465 59.1042C121.247 58.8848 121.124 58.5872 121.123 58.2765C121.123 57.6308 121.645 57.1068 122.288 57.1068H208.213C208.856 57.1068 209.378 57.6298 209.378 58.2765C209.378 58.9212 208.856 59.4462 208.213 59.4462ZM208.389 75.9306H122.463C121.821 75.9306 121.299 75.4076 121.299 74.7619C121.299 74.1162 121.821 73.5932 122.463 73.5932H208.389C209.032 73.5932 209.554 74.1162 209.554 74.7619C209.554 75.4076 209.032 75.9306 208.389 75.9306ZM184.706 92.2771H122.482C121.84 92.2771 121.317 91.7541 121.317 91.1074C121.317 90.4628 121.84 89.9388 122.482 89.9388H184.706C185.349 89.9388 185.87 90.4617 185.87 91.1074C185.87 91.7531 185.349 92.2771 184.706 92.2771ZM184.734 122.986C184.263 122.986 183.816 122.695 183.644 122.224C183.42 121.62 183.728 120.946 184.329 120.717C186.376 119.946 188.232 118.736 189.769 117.172C189.014 116.966 188.232 116.601 187.631 115.975C186.918 115.227 186.583 114.235 186.672 113.108C186.737 112.219 187.105 111.321 187.729 110.513C187.851 110.354 187.971 110.195 188.092 110.031C188.684 109.231 189.36 108.323 190.347 107.716C191.381 107.08 192.592 106.93 193.594 107.318C194.521 107.673 195.211 108.464 195.532 109.549C195.812 110.484 195.77 111.513 195.406 112.519C195.127 113.305 194.786 114.062 194.395 114.796C195.888 114.471 197.318 113.899 198.626 113.103C198.885 112.945 199.188 112.878 199.49 112.91C199.791 112.943 200.073 113.075 200.293 113.285C200.74 113.716 200.848 114.404 200.544 114.951C200.289 115.419 200.046 116.045 200.345 116.386C200.568 116.644 201.005 116.639 201.318 116.504C201.933 116.232 202.38 115.68 202.864 114.6C202.975 114.355 203.142 114.139 203.35 113.971C203.559 113.803 203.804 113.687 204.066 113.631C204.333 113.576 204.609 113.585 204.872 113.657C205.135 113.728 205.377 113.861 205.58 114.044C206.763 115.114 208.408 115.68 209.964 115.563C211.762 115.433 213.49 114.399 214.469 112.879C214.637 112.617 214.901 112.434 215.203 112.368C215.505 112.302 215.821 112.36 216.081 112.528C216.621 112.879 216.78 113.599 216.43 114.146C215.065 116.275 212.657 117.715 210.141 117.897C208.175 118.034 206.225 117.462 204.639 116.284C204.15 117.191 203.433 118.126 202.263 118.645C200.946 119.23 199.473 118.94 198.593 117.925C198.157 117.426 197.906 116.789 197.885 116.125C196.236 116.841 194.48 117.274 192.69 117.406C190.716 119.897 188.11 121.803 185.148 122.925C185.019 122.974 184.882 123 184.743 123L184.734 122.986ZM192.434 109.441C192.159 109.441 191.843 109.535 191.563 109.708C190.957 110.077 190.473 110.732 189.961 111.424C189.83 111.602 189.699 111.775 189.57 111.944C189.327 112.257 189.033 112.743 188.992 113.285C188.945 113.898 189.15 114.193 189.308 114.357C189.709 114.778 190.52 115.044 191.488 115.087C192.204 114.044 192.785 112.914 193.217 111.723C193.403 111.199 193.436 110.662 193.301 110.218C193.128 109.643 192.854 109.535 192.76 109.498C192.656 109.459 192.545 109.44 192.434 109.441ZM222.835 38.3384H56.164C55.5211 38.3384 55 37.8154 55 37.1697C55 36.524 55.5211 36 56.164 36H222.835C223.478 36 224 36.523 224 37.1697C224 37.8144 223.478 38.3384 222.835 38.3384ZM106.989 120.217H56.164C55.8557 120.217 55.5599 120.094 55.3417 119.875C55.1234 119.656 55.0005 119.358 55 119.047C55 118.402 55.5211 117.879 56.164 117.879H106.989C107.632 117.879 108.153 118.402 108.153 119.047C108.153 119.693 107.632 120.217 106.989 120.217Z" fill="#142641"/>
</svg>
