<svg width="280" height="197" viewBox="0 0 280 197" fill="none" xmlns="http://www.w3.org/2000/svg">
<path d="M150 175.5C150 182.956 143.956 189 136.5 189C129.045 189 123 182.956 123 175.5C123 168.044 129.045 162 136.5 162C143.956 162 150 168.044 150 175.5Z" fill="#F43F5E"/>
<path d="M138.103 175.501L140.666 172.937C140.771 172.831 140.855 172.707 140.912 172.569C140.97 172.431 140.999 172.284 140.999 172.135C140.999 171.986 140.97 171.838 140.912 171.7C140.855 171.563 140.771 171.438 140.666 171.333C140.561 171.227 140.436 171.144 140.298 171.086C140.161 171.029 140.013 171 139.864 171C139.715 171 139.568 171.029 139.43 171.086C139.293 171.144 139.168 171.227 139.063 171.333L136.5 173.897L133.937 171.333C133.832 171.227 133.707 171.144 133.57 171.086C133.432 171.029 133.285 171 133.136 171C132.987 171 132.839 171.029 132.702 171.086C132.564 171.144 132.439 171.227 132.334 171.333C132.229 171.438 132.145 171.563 132.088 171.7C132.03 171.838 132.001 171.986 132.001 172.135C132.001 172.284 132.03 172.431 132.088 172.569C132.145 172.707 132.229 172.831 132.334 172.937L134.897 175.501L132.334 178.066C132.175 178.224 132.066 178.426 132.022 178.646C131.978 178.866 132 179.095 132.086 179.302C132.172 179.51 132.318 179.687 132.505 179.811C132.692 179.935 132.911 180.001 133.136 180C133.425 180 133.715 179.891 133.937 179.67L136.5 177.105L139.063 179.67C139.285 179.891 139.575 180 139.864 180C140.089 180.001 140.308 179.935 140.495 179.811C140.682 179.687 140.828 179.51 140.914 179.302C141 179.095 141.022 178.866 140.978 178.646C140.934 178.426 140.825 178.224 140.666 178.066L138.103 175.501Z" fill="white"/>
<path opacity="0.3" d="M223.1 28H86.8997C83.0891 28 80 31.0671 80 34.85V107.15C80 110.933 83.0891 114 86.8997 114H223.1C226.911 114 230 110.933 230 107.15V34.85C230 31.0671 226.911 28 223.1 28Z" fill="#142641"/>
<path d="M226.1 23H89.9004C86.0891 23 83 26.0664 83 29.85V102.15C83 105.934 86.0891 109 89.9004 109H226.1C229.911 109 233 105.934 233 102.15V29.85C233 26.0671 229.911 23 226.1 23Z" fill="white"/>
<path fill-rule="evenodd" clip-rule="evenodd" d="M94 95C94 94.4477 94.4505 94 95.0061 94H159.994C160.55 94 161 94.4477 161 95C161 95.5523 160.55 96 159.994 96H95.0061C94.4505 96 94 95.5523 94 95Z" fill="#F43F5E"/>
<path opacity="0.3" d="M86.2036 114.895C86.1367 114.798 86.0713 114.696 86.0072 114.591C85.7204 114.118 85.428 113.666 85.1329 113.211C82.2963 108.829 79.2253 104.086 78.7733 77.0558C78.637 68.9075 78.692 57.5728 78.7369 48.3035C78.756 44.3606 78.7733 40.7913 78.7733 38C61.1781 49.7777 60.6997 51.0166 54.4557 67.1861C53.375 69.9848 52.1216 73.2306 50.5768 77.0558C41.3059 100.013 41.5047 115.47 42.409 125.36C42.9874 131.685 44.1099 137.986 45.7619 144.121L49.1352 156.647C49.9856 159.805 52.8684 162 56.1501 162H90.2216C94.3896 162 98.1621 159.493 99.4793 155.553C100.501 152.498 101.448 149.343 102.377 146.25C103.125 143.757 103.861 141.304 104.616 138.973C105.443 136.417 106.147 134.15 106.742 132.132L130.086 106.273C134.492 101.394 133.82 93.8002 128.625 89.7619C124.325 86.419 118.254 86.6063 114.174 90.2078L86.2036 114.895Z" fill="#142641"/>
<path fill-rule="evenodd" clip-rule="evenodd" d="M90.8523 24.0013C87.6153 24.0013 84.9964 26.623 84.9964 29.8506V102.149C84.9964 105.377 87.6153 107.999 90.8523 107.999H226.148C229.385 107.999 232.004 105.377 232.004 102.149V29.8506C232.004 26.623 229.385 24.0013 226.148 24.0013H90.8523ZM83 29.8506C83 25.512 86.5185 22 90.8523 22H226.148C230.482 22 234 25.512 234 29.8506V102.149C234 106.488 230.482 110 226.148 110H90.8523C86.5185 110 83 106.488 83 102.149V29.8506Z" fill="#142641"/>
<path fill-rule="evenodd" clip-rule="evenodd" d="M90.0613 104.73C88.8393 103.969 87.6842 102.824 86.6801 101.175C86.0452 100.133 85.5697 99.3836 85.2103 98.5832C83.8408 95.5329 84.1581 91.7367 83.7614 68.0933C83.6241 59.9131 83.6801 48.0116 83.7253 38.4194C83.7443 34.3897 83.7614 30.7675 83.7614 28C63.0449 41.8189 57.7818 52.0985 47.2733 78.0296C37.0985 103.137 40.0058 116.756 41.8333 125.318C41.8591 125.438 41.8847 125.558 41.91 125.677C42.4265 128.101 42.7742 130.558 43.1218 133.015C43.3407 134.562 43.5595 136.109 43.8205 137.648L46.2512 151.975C46.8412 155.453 49.8864 158 53.4403 158H87.0628C91.2466 158 95.0333 155.493 96.3551 151.553C97.3807 148.497 98.3313 145.341 99.2635 142.247C100.015 139.753 100.754 137.299 101.511 134.968C102.336 132.427 103.04 130.171 103.635 128.161L127.077 102.285C131.497 97.4058 130.822 89.8122 125.609 85.7738C121.294 82.4307 115.202 82.6177 111.107 86.2191L90.0613 104.73Z" fill="white"/>
<path fill-rule="evenodd" clip-rule="evenodd" d="M84.7653 26L83.2014 27.0443C72.774 34.0076 66.1745 40.1212 60.8639 47.8006C55.5738 55.4504 51.5947 64.6118 46.3451 77.5798C41.2214 90.2371 39.3751 100.04 39.0532 107.79C38.7315 115.536 39.9362 121.186 40.8528 125.484L40.9315 125.853C41.4397 128.241 41.7828 130.666 42.1312 133.131L42.1322 133.138C42.3504 134.682 42.5708 136.242 42.8341 137.795L45.2645 152.137C45.9362 156.101 49.4011 159 53.443 159H87.0626C91.6433 159 95.8376 156.248 97.3066 151.865C98.337 148.79 99.2912 145.619 100.222 142.526L100.224 142.519C100.976 140.021 101.712 137.575 102.465 135.254C103.263 132.795 103.948 130.599 104.532 128.633L127.819 102.899C132.629 97.5844 131.894 89.3157 126.223 84.9177C121.527 81.2756 114.896 81.479 110.439 85.4032L89.9853 103.413C89.126 102.756 88.2944 101.847 87.5391 100.605C87.4628 100.479 87.3894 100.359 87.3189 100.244C86.7866 99.3713 86.4161 98.7642 86.1273 98.1202C85.5312 96.7911 85.2661 95.2582 85.1245 90.9634C85.0441 88.5274 85.0032 85.2634 84.9463 80.7178C84.9032 77.2755 84.8508 73.0983 84.7652 67.9891C84.6282 59.8137 84.6841 47.9126 84.7293 38.3067L84.7293 38.3041C84.7483 34.2722 84.7653 30.6447 84.7653 27.8722V26ZM82.7553 29.7594C82.7502 32.207 82.7364 35.125 82.7215 38.2974L82.7215 38.3063C82.6763 47.9025 82.6202 59.8233 82.7577 68.0223C82.8427 73.0963 82.895 77.2633 82.9382 80.707C82.9955 85.2792 83.0369 88.5764 83.1177 91.0287C83.259 95.3141 83.52 97.2079 84.2933 98.9321C84.6373 99.6992 85.0798 100.423 85.6005 101.276C85.6725 101.393 85.7459 101.514 85.8208 101.637C86.8963 103.405 88.1576 104.671 89.5276 105.524L90.1642 105.921L111.771 86.8961C115.503 83.6104 121.054 83.4394 124.988 86.4902C129.742 90.1771 130.357 97.1109 126.326 101.565L102.734 127.635L102.67 127.853C102.078 129.854 101.377 132.104 100.554 134.642C99.7936 136.985 99.0519 139.45 98.302 141.942L98.3004 141.948C97.3674 145.048 96.4214 148.192 95.4016 151.234C94.2272 154.739 90.8488 157.005 87.0626 157.005H53.443C50.3777 157.005 47.7528 154.806 47.2444 151.806L44.814 137.464C44.5557 135.94 44.3387 134.405 44.1195 132.854L44.1172 132.837C43.7712 130.389 43.4195 127.901 42.8959 125.441L42.8191 125.081C41.9085 120.81 40.7482 115.362 41.0593 107.872C41.3705 100.379 43.1577 90.7997 48.2079 78.3241C53.466 65.335 57.372 56.3729 62.5188 48.9302C67.3798 41.9009 73.3764 36.189 82.7553 29.7594Z" fill="#142641"/>
<path fill-rule="evenodd" clip-rule="evenodd" d="M92.209 102.843C91.7107 102.602 91.1097 102.807 90.8666 103.302C90.561 103.925 89.8694 104.662 88.8227 105.427C87.7963 106.178 86.5125 106.895 85.1409 107.505C83.7708 108.114 82.3378 108.605 81.0221 108.914C79.6906 109.227 78.5469 109.337 77.7295 109.239C77.179 109.174 76.679 109.563 76.6126 110.11C76.5463 110.657 76.9387 111.154 77.4891 111.22C78.6418 111.358 80.0478 111.193 81.4841 110.856C82.9361 110.514 84.4889 109.98 85.961 109.326C87.4315 108.672 88.8462 107.887 90.013 107.034C91.1595 106.195 92.1558 105.227 92.6711 104.177C92.9142 103.682 92.7073 103.085 92.209 102.843Z" fill="#142641"/>
<path d="M114 67C107.384 67 102 61.6166 102 55C102 48.3834 107.384 43 114 43C120.616 43 126 48.3834 126 55C126 61.6158 120.616 67 114 67ZM114 44.7533C108.35 44.7533 103.751 49.3493 103.751 55.003C103.751 60.6567 108.347 65.2535 114 65.2535C119.653 65.2535 124.25 60.6567 124.25 55.003C124.25 49.3493 119.654 44.7533 114 44.7533Z" fill="#142641"/>
<path fill-rule="evenodd" clip-rule="evenodd" d="M145 49C145 48.4477 145.449 48 146.003 48H210.997C211.551 48 212 48.4477 212 49C212 49.5523 211.551 50 210.997 50H146.003C145.449 50 145 49.5523 145 49Z" fill="#142641"/>
<path fill-rule="evenodd" clip-rule="evenodd" d="M145 61C145 60.4477 145.449 60 146.003 60H210.997C211.551 60 212 60.4477 212 61C212 61.5523 211.551 62 210.997 62H146.003C145.449 62 145 61.5523 145 61Z" fill="#142641"/>
<path fill-rule="evenodd" clip-rule="evenodd" d="M94 34C94 33.4477 94.4462 33 94.9966 33H220.003C220.554 33 221 33.4477 221 34C221 34.5523 220.554 35 220.003 35H94.9966C94.4462 35 94 34.5523 94 34Z" fill="#142641"/>
<path fill-rule="evenodd" clip-rule="evenodd" d="M145 74C145 73.4477 145.451 73 146.007 73H192.993C193.549 73 194 73.4477 194 74C194 74.5523 193.549 75 192.993 75H146.007C145.451 75 145 74.5523 145 74Z" fill="#142641"/>
<path fill-rule="evenodd" clip-rule="evenodd" d="M114 66.9838C103.817 66.9838 95.9814 73.4689 95.9814 81.0081C95.9814 81.5559 95.5379 82 94.9907 82C94.4436 82 94 81.5559 94 81.0081C94 71.9609 103.186 65 114 65C124.814 65 134 71.9609 134 81.0081C134 81.5559 133.556 82 133.009 82C132.462 82 132.019 81.5559 132.019 81.0081C132.019 73.4689 124.183 66.9838 114 66.9838Z" fill="#142641"/>
<path d="M196.809 95.9903C196.481 95.9903 196.17 95.7891 196.05 95.4624C195.976 95.261 195.984 95.0385 196.074 94.8432C196.163 94.648 196.326 94.4958 196.527 94.4198C197.953 93.8856 199.246 93.0485 200.316 91.9663C199.79 91.8241 199.245 91.5716 198.827 91.1374C198.33 90.6199 198.097 89.9332 198.159 89.1535C198.204 88.5382 198.46 87.9167 198.895 87.3569C198.98 87.2466 199.064 87.1363 199.148 87.0233C199.56 86.4697 200.031 85.8419 200.718 85.4209C201.439 84.9804 202.282 84.8805 202.98 85.1455C203.625 85.3918 204.105 85.9391 204.329 86.6896C204.524 87.3375 204.495 88.0492 204.242 88.7456C204.046 89.2877 203.811 89.8145 203.537 90.3216C204.578 90.0969 205.574 89.701 206.484 89.15C206.664 89.0414 206.876 88.9951 207.085 89.0183C207.294 89.0416 207.49 89.1331 207.643 89.2786C207.795 89.4242 207.895 89.6157 207.927 89.8235C207.959 90.0314 207.921 90.244 207.82 90.4285C207.642 90.7524 207.473 91.186 207.681 91.4225C207.837 91.6008 208.141 91.5973 208.359 91.5037C208.787 91.3157 209.098 90.9335 209.436 90.1857C209.513 90.0163 209.629 89.8674 209.774 89.751C209.919 89.6346 210.09 89.554 210.273 89.5156C210.458 89.4778 210.651 89.4839 210.834 89.5334C211.017 89.5829 211.186 89.6744 211.327 89.8007C212.151 90.5422 213.299 90.9335 214.38 90.853C215.633 90.7621 216.836 90.047 217.517 88.9947C217.637 88.8208 217.82 88.7003 218.027 88.6586C218.234 88.617 218.449 88.6576 218.627 88.7718C218.805 88.8859 218.931 89.0647 218.979 89.2701C219.027 89.4756 218.992 89.6915 218.883 89.8721C217.932 91.3448 216.255 92.3416 214.504 92.4678C213.134 92.5628 211.775 92.1668 210.672 91.351C210.331 91.9795 209.832 92.6267 209.017 92.986C208.099 93.3904 207.074 93.19 206.461 92.4873C206.157 92.1414 205.983 91.7011 205.968 91.2415C204.82 91.7371 203.597 92.0368 202.35 92.128C200.977 93.8508 199.162 95.1707 197.098 95.948C197.008 95.9823 196.912 95.9999 196.816 96L196.809 95.9903ZM202.172 86.6154C201.98 86.6154 201.76 86.6799 201.565 86.7999C201.143 87.0559 200.806 87.5088 200.449 87.9882C200.358 88.1109 200.267 88.2309 200.177 88.3475C200.008 88.5639 199.804 88.901 199.774 89.2763C199.742 89.7001 199.885 89.9041 199.995 90.0178C200.274 90.3092 200.839 90.4937 201.513 90.5228C202.012 89.801 202.416 89.0187 202.717 88.1949C202.846 87.8328 202.869 87.4603 202.776 87.153C202.655 86.7548 202.464 86.6799 202.399 86.6542C202.326 86.6279 202.249 86.6147 202.172 86.6154Z" fill="#142641"/>
</svg>
