<svg width="280" height="197" viewBox="0 0 280 197" fill="none" xmlns="http://www.w3.org/2000/svg">
<path d="M150 175.5C150 182.956 143.956 189 136.5 189C129.045 189 123 182.956 123 175.5C123 168.044 129.045 162 136.5 162C143.956 162 150 168.044 150 175.5Z" fill="#F43F5E"/>
<path d="M239.717 153.996H36.2832C30.6155 153.996 26 149.422 26 143.796V22.2005C26 16.5784 30.6105 12 36.2832 12H239.717C245.384 12 250 16.5744 250 22.2005V143.799C250 149.422 245.388 154 239.717 154V153.996ZM36.2832 14.324C31.9012 14.324 28.3378 17.8587 28.3378 22.2055V143.799C28.3378 148.146 31.9012 151.681 36.2832 151.681H239.717C244.098 151.681 247.661 148.146 247.661 143.799V22.2005C247.661 17.8547 244.098 14.32 239.717 14.32H36.2832V14.324Z" fill="#F43F5E"/>
<path d="M138.103 175.501L140.666 172.937C140.771 172.831 140.855 172.707 140.912 172.569C140.97 172.431 140.999 172.284 140.999 172.135C140.999 171.986 140.97 171.838 140.912 171.7C140.855 171.563 140.771 171.438 140.666 171.333C140.561 171.227 140.436 171.144 140.298 171.086C140.161 171.029 140.013 171 139.864 171C139.715 171 139.568 171.029 139.43 171.086C139.293 171.144 139.168 171.227 139.063 171.333L136.5 173.897L133.937 171.333C133.832 171.227 133.707 171.144 133.57 171.086C133.432 171.029 133.285 171 133.136 171C132.987 171 132.839 171.029 132.702 171.086C132.564 171.144 132.439 171.227 132.334 171.333C132.229 171.438 132.145 171.563 132.088 171.7C132.03 171.838 132.001 171.986 132.001 172.135C132.001 172.284 132.03 172.431 132.088 172.569C132.145 172.707 132.229 172.831 132.334 172.937L134.897 175.501L132.334 178.066C132.175 178.224 132.066 178.426 132.022 178.646C131.978 178.866 132 179.095 132.086 179.302C132.172 179.51 132.318 179.687 132.505 179.811C132.692 179.935 132.911 180.001 133.136 180C133.425 180 133.715 179.891 133.937 179.67L136.5 177.105L139.063 179.67C139.285 179.891 139.575 180 139.864 180C140.089 180.001 140.308 179.935 140.495 179.811C140.682 179.687 140.828 179.51 140.914 179.302C141 179.095 141.022 178.866 140.978 178.646C140.934 178.426 140.825 178.224 140.666 178.066L138.103 175.501Z" fill="white"/>
<path opacity="0.3" d="M225.891 30H46.1076C43.6921 30 41.3755 30.9566 39.6675 32.6595C37.9595 34.3623 37 36.6718 37 39.0799V134.919C36.9999 136.112 37.2353 137.292 37.693 138.394C38.1506 139.496 38.8215 140.497 39.6672 141.34C40.5129 142.183 41.517 142.852 42.622 143.309C43.7271 143.765 44.9115 144 46.1076 144H225.891C227.088 144 228.272 143.765 229.377 143.309C230.482 142.853 231.487 142.184 232.332 141.341C233.178 140.497 233.849 139.496 234.307 138.394C234.765 137.293 235 136.112 235 134.919V39.0799C235 37.8875 234.764 36.7067 234.307 35.605C233.849 34.5033 233.178 33.5023 232.332 32.6591C231.486 31.8159 230.482 31.1471 229.377 30.6909C228.272 30.2346 227.088 29.9999 225.891 30Z" fill="#142641"/>
<path d="M229.892 24H50.1086C48.9125 23.9999 47.728 24.2346 46.6229 24.6909C45.5178 25.1471 44.5137 25.8159 43.6679 26.6591C42.8221 27.5023 42.1511 28.5033 41.6934 29.605C41.2356 30.7067 41 31.8875 41 33.0799V128.919C40.9999 130.112 41.2354 131.293 41.6931 132.394C42.1508 133.496 42.8217 134.497 43.6675 135.341C44.5134 136.184 45.5175 136.853 46.6227 137.309C47.7279 137.765 48.9124 138 50.1086 138H229.892C231.089 138 232.273 137.765 233.378 137.309C234.483 136.852 235.487 136.183 236.333 135.34C237.179 134.497 237.849 133.496 238.307 132.394C238.765 131.292 239 130.112 239 128.919V33.0799C239 30.6718 238.04 28.3623 236.332 26.6595C234.624 24.9566 232.308 24 229.892 24Z" fill="white"/>
<path d="M229.741 140H50.2589C44.6046 140 40 135.379 40 129.696V33.3041C40 27.6249 44.6006 23 50.2589 23H229.741C235.395 23 240 27.6199 240 33.3041V129.696C240 135.375 235.4 140 229.741 140ZM50.2589 25.3476C45.8882 25.3476 42.3333 28.9182 42.3333 33.3081V129.7C42.3333 134.091 45.8882 137.661 50.2589 137.661H229.741C234.113 137.661 237.668 134.091 237.668 129.7V33.3041C237.668 28.9132 234.113 25.3426 229.741 25.3426H50.2589V25.3476Z" fill="#142641"/>
<path d="M82 83C73.1783 83 66 75.8219 66 67.0005C66 58.1791 73.1783 51 82 51C90.8217 51 98 58.1791 98 67.0005C98 75.8219 90.8217 83 82 83ZM82 53.3384C74.4666 53.3384 68.3334 59.4673 68.3334 67.0045C68.3334 74.5427 74.4616 80.6706 82 80.6706C89.5384 80.6706 95.6666 74.5427 95.6666 67.0045C95.6666 59.4673 89.5384 53.3384 82 53.3384Z" fill="#142641"/>
<path d="M107.989 102.791C107.68 102.791 107.384 102.667 107.166 102.448C106.947 102.229 106.825 101.931 106.824 101.621C106.824 91.2016 95.9466 82.727 82.5771 82.727C69.2077 82.727 58.3299 91.2016 58.3299 101.621C58.321 101.925 58.1945 102.214 57.977 102.426C57.7596 102.638 57.4685 102.757 57.1654 102.757C56.8624 102.757 56.5713 102.638 56.3538 102.426C56.1364 102.214 56.0099 101.925 56.001 101.621C56.001 89.9158 67.922 80.3889 82.5771 80.3889C97.2323 80.3889 109.153 89.9158 109.153 101.621C109.153 102.267 108.632 102.791 107.989 102.791ZM209.212 59.4452H123.287C122.984 59.4363 122.697 59.3092 122.486 59.091C122.275 58.8727 122.156 58.5804 122.156 58.2761C122.156 57.9719 122.275 57.6796 122.486 57.4613C122.697 57.2431 122.984 57.116 123.287 57.1071H209.212C209.515 57.116 209.802 57.2431 210.013 57.4613C210.225 57.6796 210.343 57.9719 210.343 58.2761C210.343 58.5804 210.225 58.8727 210.013 59.091C209.802 59.3092 209.515 59.4363 209.212 59.4452ZM209.39 75.9312H123.464C123.155 75.9312 122.859 75.808 122.641 75.5888C122.422 75.3696 122.3 75.0722 122.3 74.7622C122.3 74.4521 122.422 74.1547 122.641 73.9355C122.859 73.7163 123.155 73.5931 123.464 73.5931H209.39C209.692 73.602 209.98 73.7291 210.191 73.9473C210.402 74.1656 210.52 74.4579 210.52 74.7622C210.52 75.0664 210.402 75.3587 210.191 75.577C209.98 75.7952 209.692 75.9223 209.39 75.9312ZM185.706 92.2769H123.483C123.18 92.268 122.893 92.1409 122.681 91.9227C122.47 91.7044 122.352 91.4121 122.352 91.1079C122.352 90.8036 122.47 90.5113 122.681 90.293C122.893 90.0748 123.18 89.9477 123.483 89.9388H185.706C186.009 89.9477 186.297 90.0748 186.508 90.293C186.719 90.5113 186.837 90.8036 186.837 91.1079C186.837 91.4121 186.719 91.7044 186.508 91.9227C186.297 92.1409 186.009 92.268 185.706 92.2769ZM185.734 122.986C185.263 122.986 184.816 122.695 184.644 122.223C184.538 121.932 184.55 121.611 184.678 121.329C184.806 121.047 185.04 120.827 185.329 120.717C187.377 119.945 189.233 118.736 190.769 117.172C190.015 116.967 189.232 116.602 188.631 115.975C187.918 115.227 187.583 114.235 187.672 113.108C187.737 112.219 188.105 111.321 188.729 110.513C188.851 110.353 188.972 110.194 189.092 110.031C189.684 109.231 190.36 108.324 191.347 107.716C192.382 107.079 193.592 106.935 194.595 107.318C195.521 107.674 196.211 108.464 196.532 109.549C196.812 110.485 196.77 111.513 196.406 112.519C196.126 113.302 195.788 114.063 195.395 114.796C196.889 114.471 198.319 113.899 199.626 113.103C199.885 112.946 200.188 112.88 200.489 112.913C200.79 112.947 201.071 113.079 201.29 113.289C201.508 113.499 201.651 113.776 201.697 114.076C201.744 114.377 201.69 114.684 201.544 114.95C201.289 115.418 201.046 116.045 201.345 116.387C201.568 116.644 202.006 116.639 202.318 116.504C202.933 116.232 203.38 115.68 203.864 114.6C203.975 114.355 204.141 114.14 204.35 113.972C204.559 113.804 204.804 113.687 205.066 113.632C205.333 113.577 205.609 113.586 205.872 113.657C206.135 113.729 206.378 113.861 206.58 114.043C207.763 115.115 209.412 115.68 210.964 115.564C212.763 115.432 214.491 114.399 215.469 112.879C215.641 112.628 215.903 112.454 216.201 112.393C216.498 112.333 216.807 112.392 217.063 112.557C217.318 112.722 217.499 112.98 217.568 113.277C217.636 113.574 217.587 113.886 217.43 114.147C216.065 116.274 213.657 117.714 211.141 117.897C209.174 118.034 207.223 117.462 205.639 116.283C205.15 117.191 204.433 118.126 203.263 118.645C201.946 119.23 200.473 118.94 199.593 117.925C199.157 117.425 198.906 116.789 198.885 116.125C197.237 116.841 195.481 117.274 193.69 117.406C191.718 119.895 189.112 121.802 186.149 122.925C186.019 122.974 185.882 123 185.743 123L185.734 122.986ZM193.435 109.441C193.159 109.441 192.843 109.535 192.563 109.708C191.957 110.078 191.473 110.732 190.961 111.425C190.83 111.602 190.699 111.775 190.57 111.944C190.327 112.257 190.034 112.744 189.992 113.286C189.945 113.898 190.15 114.193 190.308 114.357C190.709 114.778 191.52 115.045 192.488 115.087C193.205 114.044 193.786 112.914 194.217 111.723C194.403 111.2 194.436 110.662 194.301 110.218C194.128 109.643 193.854 109.535 193.76 109.498C193.656 109.459 193.546 109.44 193.435 109.441ZM223.835 38.3391H57.1649C56.856 38.3391 56.5597 38.2159 56.3412 37.9966C56.1227 37.7772 56 37.4797 56 37.1696C56 36.8594 56.1227 36.5619 56.3412 36.3426C56.5597 36.1232 56.856 36 57.1649 36H223.835C224.144 36 224.44 36.1232 224.659 36.3426C224.877 36.5619 225 36.8594 225 37.1696C225 37.4797 224.877 37.7772 224.659 37.9966C224.44 38.2159 224.144 38.3391 223.835 38.3391ZM107.989 120.217H57.1649C56.862 120.208 56.5745 120.081 56.3633 119.863C56.1522 119.644 56.0341 119.352 56.0341 119.048C56.0341 118.744 56.1522 118.451 56.3633 118.233C56.5745 118.015 56.862 117.888 57.1649 117.879H107.989C108.298 117.879 108.594 118.002 108.813 118.221C109.031 118.44 109.154 118.738 109.154 119.048C109.154 119.358 109.031 119.655 108.813 119.875C108.594 120.094 108.298 120.217 107.989 120.217Z" fill="#142641"/>
<path opacity="0.95" d="M101.772 23L54 139.999H101.772L144.158 23H101.772ZM157.975 23L110.203 140L117.93 139.999L165 23H157.975Z" fill="#F9FAFB"/>
</svg>
