<svg width="280" height="197" viewBox="0 0 280 197" fill="none" xmlns="http://www.w3.org/2000/svg">
<path d="M150 175.5C150 182.956 143.956 189 136.5 189C129.045 189 123 182.956 123 175.5C123 168.044 129.045 162 136.5 162C143.956 162 150 168.044 150 175.5Z" fill="#F43F5E"/>
<path opacity="0.3" d="M225.893 29.001H46.1086C44.9125 29.0009 43.7281 29.2356 42.623 29.6919C41.5179 30.1481 40.5137 30.8169 39.6679 31.6601C38.8221 32.5033 38.1511 33.5043 37.6934 34.606C37.2356 35.7077 37 36.8885 37 38.0809V133.92C37 135.113 37.2356 136.293 37.6934 137.395C38.1511 138.497 38.8221 139.498 39.6679 140.341C40.5137 141.184 41.5179 141.853 42.623 142.309C43.7281 142.765 44.9125 143 46.1086 143H225.892C228.308 143 230.624 142.043 232.332 140.341C234.04 138.638 235 136.328 235 133.92V38.0809C235 36.8885 234.765 35.7076 234.307 34.6059C233.849 33.5041 233.179 32.5031 232.333 31.6598C231.487 30.8166 230.483 30.1476 229.378 29.6913C228.273 29.2349 227.089 29 225.892 29L225.893 29.001Z" fill="#142641"/>
<path d="M230.892 24H51.1076C48.6921 24 46.3756 24.9566 44.6676 26.6595C42.9595 28.3623 42 30.6718 42 33.0799V128.919C41.9999 130.112 42.2353 131.292 42.693 132.394C43.1506 133.496 43.8215 134.497 44.6672 135.34C45.5129 136.183 46.517 136.852 47.622 137.309C48.7271 137.765 49.9115 138 51.1076 138H230.892C232.089 138 233.273 137.765 234.378 137.309C235.483 136.852 236.487 136.183 237.333 135.34C238.179 134.497 238.849 133.496 239.307 132.394C239.765 131.292 240 130.112 240 128.919V33.0799C240 30.6718 239.04 28.3623 237.332 26.6595C235.624 24.9566 233.308 24 230.892 24Z" fill="white"/>
<g opacity="0.4">
<path d="M229.741 139H50.2587C44.6045 139 40 134.38 40 128.696V32.3041C40 26.6249 44.5995 22 50.2587 22H229.741C235.395 22 240 26.6199 240 32.3041V128.696C240 134.375 235.4 139 229.741 139ZM50.2587 24.3476C45.8871 24.3476 42.3323 27.9182 42.3323 32.3091V128.701C42.3323 133.091 45.8871 136.661 50.2587 136.661H229.741C234.113 136.661 237.668 133.091 237.668 128.701V32.3041C237.668 27.9132 234.113 24.3426 229.741 24.3426H50.2587V24.3476Z" fill="#142641"/>
<path d="M81.9995 82C73.1781 82 66 74.8219 66 66.0005C66 57.1791 73.1781 50 81.9995 50C90.8209 50 98 57.1781 98 65.9995C98 74.8209 90.8209 82 81.9995 82ZM81.9995 52.3394C74.4663 52.3394 68.3334 58.4673 68.3334 66.0055C68.3334 73.5427 74.4623 79.6716 81.9995 79.6716C89.5377 79.6716 95.6656 73.5427 95.6656 66.0055C95.6656 58.4673 89.5377 52.3394 81.9995 52.3394Z" fill="#142641"/>
<path d="M108.026 101.791C107.717 101.791 107.421 101.668 107.203 101.448C106.984 101.229 106.862 100.932 106.861 100.622C106.861 90.2012 95.9847 81.7266 82.6146 81.7266C69.2455 81.7266 58.3679 90.2012 58.3679 100.622C58.3679 100.932 58.2452 101.229 58.0269 101.449C57.8085 101.668 57.5123 101.791 57.2035 101.791C56.8947 101.791 56.5985 101.668 56.3801 101.449C56.1618 101.229 56.0391 100.932 56.0391 100.622C56.0391 88.9154 67.9598 79.3884 82.6146 79.3884C97.2704 79.3884 109.191 88.9154 109.191 100.622C109.191 101.267 108.669 101.791 108.026 101.791ZM209.242 58.4455H123.319C123.01 58.4455 122.714 58.3222 122.495 58.1029C122.277 57.8836 122.154 57.5861 122.154 57.2759C122.154 56.9657 122.277 56.6682 122.495 56.4489C122.714 56.2296 123.01 56.1063 123.319 56.1063H209.242C209.551 56.1063 209.848 56.2296 210.066 56.4489C210.285 56.6682 210.407 56.9657 210.407 57.2759C210.407 57.5861 210.285 57.8836 210.066 58.1029C209.848 58.3222 209.551 58.4455 209.242 58.4455ZM209.424 74.9317H123.502C123.193 74.9317 122.896 74.8084 122.678 74.5891C122.459 74.3698 122.337 74.0723 122.337 73.7621C122.337 73.4519 122.459 73.1544 122.678 72.9351C122.896 72.7157 123.193 72.5925 123.502 72.5925H209.424C209.733 72.5925 210.029 72.7157 210.248 72.9351C210.466 73.1544 210.589 73.4519 210.589 73.7621C210.589 74.0723 210.466 74.3698 210.248 74.5891C210.029 74.8084 209.733 74.9317 209.424 74.9317ZM185.741 91.2775H123.515C123.206 91.2775 122.909 91.1543 122.691 90.935C122.472 90.7156 122.35 90.4182 122.35 90.108C122.35 89.7978 122.472 89.5003 122.691 89.281C122.909 89.0616 123.206 88.9384 123.515 88.9384H185.736C186.045 88.9384 186.342 89.0616 186.56 89.281C186.779 89.5003 186.901 89.7978 186.901 90.108C186.901 90.4182 186.779 90.7156 186.56 90.935C186.342 91.1543 186.045 91.2775 185.736 91.2775H185.741ZM185.764 121.986C185.294 121.986 184.847 121.696 184.674 121.223C184.567 120.932 184.579 120.611 184.708 120.329C184.836 120.047 185.07 119.827 185.359 119.718C187.407 118.945 189.263 117.735 190.8 116.172C190.046 115.967 189.263 115.602 188.662 114.976C187.949 114.227 187.614 113.236 187.702 112.108C187.768 111.219 188.135 110.321 188.76 109.513C188.881 109.353 189.001 109.195 189.123 109.031C189.714 108.231 190.39 107.324 191.377 106.715C192.411 106.08 193.623 105.935 194.624 106.319C195.552 106.673 196.241 107.464 196.562 108.549C196.841 109.485 196.8 110.514 196.436 111.519C196.157 112.305 195.817 113.062 195.426 113.797C196.92 113.472 198.349 112.899 199.655 112.103C199.914 111.944 200.219 111.876 200.52 111.909C200.822 111.942 201.105 112.074 201.323 112.286C201.771 112.717 201.877 113.404 201.575 113.951C201.318 114.418 201.076 115.046 201.374 115.386C201.598 115.644 202.036 115.639 202.348 115.504C202.963 115.232 203.41 114.681 203.895 113.601C204.005 113.356 204.171 113.14 204.38 112.972C204.589 112.804 204.835 112.687 205.097 112.632C205.363 112.578 205.639 112.587 205.902 112.658C206.165 112.729 206.407 112.861 206.61 113.043C207.794 114.115 209.438 114.681 210.994 114.564C212.792 114.432 214.52 113.399 215.498 111.879C215.67 111.628 215.932 111.453 216.23 111.393C216.527 111.333 216.837 111.392 217.092 111.557C217.347 111.722 217.528 111.98 217.597 112.277C217.666 112.574 217.616 112.886 217.46 113.147C216.095 115.274 213.686 116.715 211.171 116.898C209.204 117.034 207.254 116.462 205.67 115.284C205.181 116.191 204.463 117.126 203.294 117.645C201.975 118.231 200.503 117.94 199.623 116.926C199.187 116.425 198.937 115.789 198.915 115.125C197.267 115.841 195.512 116.274 193.721 116.407C191.765 118.871 189.146 120.812 186.179 121.925C186.044 121.977 185.909 122 185.773 122L185.764 121.986ZM193.465 108.441C193.156 108.45 192.855 108.542 192.593 108.708C191.988 109.078 191.503 109.732 190.991 110.425C190.863 110.599 190.732 110.772 190.6 110.944C190.357 111.257 190.064 111.743 190.022 112.286C189.976 112.899 190.18 113.194 190.339 113.357C190.739 113.778 191.55 114.045 192.519 114.087C193.235 113.044 193.816 111.914 194.247 110.724C194.434 110.2 194.466 109.662 194.331 109.218C194.158 108.643 193.884 108.535 193.791 108.497C193.686 108.459 193.576 108.44 193.465 108.441ZM223.869 37.3381H57.199C56.8961 37.3292 56.6086 37.2022 56.3974 36.9839C56.1863 36.7656 56.0682 36.4733 56.0682 36.1691C56.0682 35.8648 56.1863 35.5725 56.3974 35.3542C56.6086 35.136 56.8961 35.0089 57.199 35H223.869C224.172 35.0089 224.46 35.136 224.671 35.3542C224.882 35.5725 225 35.8648 225 36.1691C225 36.4733 224.882 36.7656 224.671 36.9839C224.46 37.2022 224.172 37.3292 223.869 37.3381ZM108.026 119.217H57.199C57.0432 119.221 56.8881 119.195 56.7429 119.138C56.5976 119.081 56.4651 118.996 56.3533 118.887C56.2415 118.778 56.1527 118.647 56.092 118.503C56.0313 118.359 56 118.204 56 118.048C56 117.891 56.0313 117.736 56.092 117.592C56.1527 117.448 56.2415 117.318 56.3533 117.209C56.4651 117.1 56.5976 117.014 56.7429 116.958C56.8881 116.901 57.0432 116.874 57.199 116.879H108.021C108.32 116.894 108.601 117.024 108.807 117.241C109.013 117.459 109.128 117.748 109.128 118.048C109.128 118.348 109.013 118.637 108.807 118.854C108.601 119.072 108.32 119.202 108.021 119.217H108.026Z" fill="#142641"/>
</g>
<g opacity="0.3">
<path d="M230.991 136.742L51.7474 140.997C46.1002 141.133 41.3977 136.63 41.2619 130.962L39.003 34.7815C38.8681 29.1134 43.356 24.3943 49.0042 24.259L228.247 20.003C233.895 19.8677 238.597 24.3723 238.732 30.0394L240.997 126.214C241.132 131.883 236.645 136.602 230.996 136.737L230.992 136.742H230.991ZM49.0591 26.597C44.6971 26.7003 41.2299 30.348 41.3328 34.7254L43.5966 130.9C43.6995 135.278 47.3345 138.757 51.6965 138.654L230.939 134.399C235.301 134.296 238.768 130.648 238.666 126.271L236.401 30.0955C236.299 25.7182 232.664 22.2387 228.302 22.342L49.0581 26.597H49.0591Z" fill="#142641"/>
<path d="M82.3781 82.9954C73.5562 83.2054 66.2146 76.1992 66.0046 67.3776C65.7946 58.556 72.8 51.2146 81.6219 51.0046C90.4438 50.7946 97.7854 57.7998 97.9954 66.6214C98.2054 75.443 91.2 82.7854 82.3781 82.9954ZM81.6779 53.338C74.1443 53.5151 68.1601 59.7892 68.3381 67.3216C68.5151 74.8549 74.7885 80.839 82.3221 80.661C89.8557 80.4839 95.8399 74.2108 95.6619 66.6774C95.4849 59.1441 89.2115 53.16 81.6779 53.338Z" fill="#142641"/>
<path d="M108.547 102.403C108.238 102.41 107.939 102.294 107.715 102.081C107.491 101.867 107.361 101.573 107.354 101.263C107.107 90.8659 96.0284 82.6615 82.6567 82.9787C69.2859 83.2969 58.6037 92.0135 58.8504 102.412C58.8442 102.713 58.7224 103 58.5103 103.213C58.2983 103.426 58.0124 103.549 57.7121 103.556C57.4118 103.563 57.1204 103.454 56.8984 103.252C56.6764 103.049 56.541 102.768 56.5204 102.468C56.2447 90.7819 67.9426 80.9946 82.6007 80.6444C97.2588 80.2993 109.409 89.5202 109.684 101.207C109.691 101.517 109.576 101.817 109.363 102.041C109.15 102.265 108.856 102.395 108.547 102.403ZM208.769 56.7427L122.827 58.7788C122.527 58.7726 122.24 58.6505 122.027 58.4381C121.815 58.2257 121.692 57.9393 121.685 57.6384C121.678 57.3376 121.786 57.0456 121.989 56.8232C122.191 56.6008 122.471 56.4652 122.771 56.4445L208.713 54.4084C209.013 54.4146 209.3 54.5367 209.512 54.7491C209.725 54.9615 209.848 55.2479 209.855 55.5488C209.862 55.8496 209.753 56.1416 209.551 56.364C209.349 56.5864 209.069 56.722 208.769 56.7427ZM209.338 73.1925L123.395 75.2285C123.086 75.236 122.787 75.1201 122.563 74.9064C122.339 74.6927 122.209 74.3986 122.202 74.0889C122.194 73.7793 122.31 73.4793 122.523 73.2551C122.737 73.0309 123.03 72.9007 123.339 72.8933L209.282 70.8582C209.588 70.856 209.882 70.9742 210.102 71.1874C210.321 71.4005 210.449 71.6916 210.456 71.9978C210.463 72.304 210.35 72.6008 210.141 72.8243C209.932 73.0478 209.644 73.18 209.338 73.1925ZM186.03 90.0715L123.797 91.5473C123.494 91.5443 123.204 91.4237 122.989 91.2109C122.774 90.9981 122.649 90.7098 122.642 90.4067C122.635 90.1037 122.745 89.8097 122.95 89.5868C123.155 89.3639 123.439 89.2295 123.741 89.212L185.974 87.7372C186.28 87.735 186.574 87.8532 186.794 88.0664C187.014 88.2796 187.141 88.5706 187.148 88.8768C187.155 89.183 187.042 89.4798 186.833 89.7033C186.624 89.9268 186.336 90.059 186.03 90.0715ZM186.78 120.72C186.508 120.725 186.243 120.634 186.031 120.463C185.819 120.293 185.672 120.054 185.618 119.787C185.563 119.52 185.603 119.242 185.731 119.001C185.859 118.761 186.067 118.573 186.319 118.47C188.35 117.649 190.178 116.397 191.679 114.8C190.919 114.613 190.127 114.267 189.512 113.651C188.78 112.923 188.426 111.942 188.482 110.812C188.528 109.925 188.874 109.019 189.479 108.197C189.596 108.038 189.713 107.875 189.828 107.707C190.402 106.894 191.055 105.97 192.029 105.345C193.044 104.686 194.257 104.508 195.267 104.868C196.204 105.2 196.913 105.975 197.263 107.049C197.565 107.978 197.546 109.001 197.207 110.018C196.945 110.807 196.624 111.575 196.246 112.315C197.732 111.957 199.149 111.352 200.437 110.527C200.692 110.363 200.995 110.288 201.297 110.314C201.599 110.339 201.885 110.463 202.11 110.667C202.571 111.088 202.688 111.769 202.403 112.324C202.161 112.797 201.933 113.427 202.235 113.758C202.468 114.01 202.902 113.996 203.214 113.851C203.82 113.567 204.258 113.002 204.719 111.914C204.824 111.667 204.986 111.449 205.191 111.276C205.395 111.103 205.638 110.981 205.899 110.92C206.164 110.858 206.44 110.86 206.705 110.924C206.97 110.989 207.216 111.115 207.423 111.293C208.63 112.329 210.289 112.862 211.841 112.708C213.64 112.53 215.342 111.466 216.282 109.92C216.446 109.661 216.705 109.476 217.003 109.407C217.301 109.337 217.615 109.388 217.876 109.548C218.138 109.708 218.326 109.964 218.4 110.262C218.474 110.56 218.428 110.874 218.273 111.139C216.958 113.296 214.582 114.79 212.07 115.033C210.106 115.216 208.141 114.691 206.528 113.553C206.058 114.467 205.367 115.42 204.207 115.966C202.902 116.579 201.419 116.326 200.521 115.336C200.072 114.848 199.805 114.219 199.766 113.557C198.135 114.312 196.389 114.786 194.601 114.958C192.7 117.465 190.132 119.464 187.191 120.645C187.056 120.697 186.92 120.725 186.785 120.729L186.78 120.72ZM194.163 107.021C193.854 107.036 193.554 107.134 193.296 107.306C192.7 107.688 192.233 108.351 191.735 109.057C191.609 109.234 191.483 109.411 191.357 109.584C191.125 109.901 190.84 110.391 190.812 110.934C190.779 111.545 190.994 111.834 191.157 111.998C191.567 112.408 192.387 112.657 193.357 112.675C194.051 111.618 194.604 110.476 195.002 109.276C195.18 108.748 195.198 108.211 195.054 107.768C194.867 107.194 194.587 107.096 194.494 107.063C194.388 107.027 194.275 107.011 194.163 107.016V107.021ZM222.901 35.3352L56.1938 39.2854C55.8847 39.2928 55.5853 39.1769 55.3615 38.9632C55.1377 38.7495 55.0078 38.4554 55.0003 38.1457C54.9929 37.8361 55.1086 37.5361 55.3219 37.3119C55.5353 37.0877 55.8288 36.9575 56.1379 36.9501L222.845 33C223.147 33.003 223.437 33.1236 223.652 33.3364C223.868 33.5492 223.992 33.8375 224 34.1405C224.007 34.4436 223.896 34.7376 223.691 34.9605C223.486 35.1834 223.203 35.3178 222.901 35.3352ZM108.957 119.795L58.1233 121C57.823 120.994 57.5367 120.872 57.3239 120.659C57.1112 120.447 56.9884 120.16 56.9812 119.86C56.974 119.559 57.0829 119.267 57.2852 119.044C57.4876 118.822 57.7677 118.686 58.0674 118.666L108.901 117.461C109.055 117.455 109.21 117.479 109.355 117.533C109.5 117.587 109.632 117.67 109.745 117.776C109.858 117.882 109.949 118.009 110.012 118.151C110.075 118.292 110.11 118.445 110.113 118.6C110.117 118.755 110.09 118.909 110.034 119.053C109.977 119.197 109.893 119.329 109.785 119.44C109.678 119.552 109.549 119.64 109.407 119.701C109.264 119.762 109.111 119.794 108.957 119.795Z" fill="#142641"/>
</g>
<g opacity="0.2">
<path d="M233.237 132.957L53.6477 141.987C47.9878 142.27 43.1502 137.923 42.8647 132.292L38.0131 36.7699C37.7287 31.1385 42.0985 26.3261 47.7584 26.0431L227.347 17.0132C233.008 16.7292 237.846 21.0773 238.131 26.7077L242.987 122.235C243.272 127.866 238.902 132.678 233.241 132.962L233.237 132.957ZM47.8756 28.3626C43.5007 28.5818 40.1265 32.3012 40.3458 36.6483L45.2024 132.176C45.4218 136.523 49.1606 139.885 53.5315 139.666L233.12 130.636C237.495 130.418 240.869 126.699 240.65 122.351L235.793 26.8243C235.574 22.4762 231.834 19.1145 227.464 19.3337L47.8756 28.3626Z" fill="#142641"/>
<path d="M82.8082 83.9795C73.9942 84.4227 66.4636 77.6171 66.0205 68.8068C65.5773 59.9975 72.3827 52.4627 81.1927 52.0206C90.0017 51.5764 97.5363 58.3829 97.9794 67.1922C98.4236 76.0055 91.6173 83.5364 82.8082 83.9795ZM81.3087 54.3484C73.7841 54.7276 67.9671 61.165 68.3503 68.6908C68.7324 76.2156 75.1656 82.0328 82.6912 81.6497C90.2158 81.2675 96.0328 74.8341 95.6496 67.3083C95.2675 59.7835 88.8343 53.9663 81.3097 54.3494L81.3087 54.3484Z" fill="#142641"/>
<path d="M109.292 102.14C109.139 102.147 108.987 102.125 108.842 102.074C108.698 102.023 108.565 101.944 108.452 101.841C108.338 101.739 108.246 101.615 108.181 101.477C108.115 101.34 108.078 101.19 108.07 101.038C107.548 90.695 96.242 82.8295 82.8728 83.5039C69.5056 84.1773 59.0529 93.1405 59.5806 103.483C59.5961 103.791 59.4883 104.092 59.2809 104.321C59.0735 104.55 58.7835 104.687 58.4747 104.702C58.1659 104.718 57.8635 104.61 57.6342 104.403C57.4049 104.197 57.2673 103.908 57.2518 103.6C56.6651 91.978 68.1063 81.923 82.7618 81.1839C97.4174 80.4448 109.819 89.3004 110.407 100.922C110.415 101.075 110.392 101.227 110.341 101.371C110.29 101.514 110.21 101.647 110.108 101.76C110.005 101.873 109.881 101.965 109.743 102.03C109.604 102.095 109.454 102.132 109.301 102.14H109.292ZM208.329 54.0083L122.404 58.3355C122.251 58.3432 122.098 58.3208 121.954 58.2696C121.81 58.2184 121.677 58.1394 121.564 58.0371C121.45 57.9349 121.358 57.8113 121.293 57.6736C121.227 57.5358 121.189 57.3866 121.182 57.2343C121.174 57.082 121.197 56.9298 121.248 56.7861C121.299 56.6425 121.379 56.5104 121.481 56.3973C121.584 56.2843 121.708 56.1924 121.846 56.1271C121.984 56.0617 122.134 56.0242 122.287 56.0165L208.213 51.6883C208.366 51.6805 208.519 51.7029 208.663 51.7541C208.807 51.8053 208.94 51.8843 209.053 51.9866C209.167 52.089 209.259 52.2126 209.324 52.3505C209.389 52.4883 209.427 52.6377 209.434 52.79C209.442 52.9424 209.42 53.0949 209.369 53.2387C209.317 53.3825 209.238 53.5147 209.135 53.6279C209.033 53.7411 208.909 53.833 208.77 53.8982C208.632 53.9635 208.482 54.0009 208.329 54.0083ZM209.341 70.3669L123.416 74.6941C123.263 74.7017 123.111 74.6793 122.967 74.6281C122.822 74.5769 122.69 74.4979 122.576 74.3957C122.463 74.2934 122.371 74.1699 122.305 74.0321C122.24 73.8944 122.202 73.7451 122.194 73.5928C122.187 73.4406 122.209 73.2883 122.26 73.1447C122.312 73.0011 122.391 72.869 122.494 72.7559C122.596 72.6428 122.72 72.551 122.858 72.4856C122.997 72.4203 123.146 72.3827 123.299 72.3751L209.225 68.0469C209.377 68.0392 209.53 68.0616 209.674 68.1129C209.819 68.1641 209.951 68.2431 210.065 68.3454C210.178 68.4477 210.27 68.5713 210.336 68.7091C210.402 68.8469 210.439 68.9962 210.447 69.1486C210.455 69.3009 210.432 69.4533 210.381 69.5969C210.329 69.7406 210.25 69.8728 210.147 69.9859C210.045 70.099 209.921 70.1909 209.782 70.2563C209.644 70.3216 209.494 70.3592 209.341 70.3669ZM186.482 87.7893L124.26 90.9231C124.107 90.9309 123.954 90.9085 123.81 90.8573C123.666 90.8062 123.533 90.7271 123.42 90.6248C123.306 90.5224 123.214 90.3988 123.149 90.2609C123.083 90.1231 123.046 89.9737 123.038 89.8214C123.03 89.669 123.053 89.5165 123.104 89.3727C123.155 89.229 123.235 89.0967 123.337 88.9835C123.44 88.8703 123.564 88.7785 123.703 88.7132C123.841 88.6479 123.991 88.6105 124.144 88.6031L186.365 85.4703C186.518 85.4626 186.671 85.485 186.815 85.5362C186.959 85.5874 187.091 85.6664 187.205 85.7687C187.318 85.8709 187.411 85.9944 187.476 86.1322C187.542 86.2699 187.579 86.4192 187.587 86.5715C187.595 86.7238 187.572 86.876 187.521 87.0196C187.469 87.1632 187.39 87.2954 187.288 87.4084C187.185 87.5215 187.061 87.6134 186.923 87.6787C186.785 87.744 186.635 87.7816 186.482 87.7893ZM188.054 118.271C187.782 118.283 187.513 118.2 187.296 118.036C187.078 117.871 186.925 117.637 186.863 117.372C186.801 117.107 186.834 116.829 186.956 116.585C187.078 116.342 187.282 116.149 187.532 116.04C189.54 115.169 191.335 113.875 192.793 112.246C192.023 112.079 191.226 111.758 190.596 111.163C189.845 110.456 189.463 109.489 189.491 108.364C189.514 107.481 189.835 106.57 190.419 105.734C190.531 105.57 190.643 105.403 190.759 105.236C191.315 104.413 191.939 103.478 192.896 102.823C193.898 102.14 195.102 101.93 196.123 102.261C197.07 102.568 197.797 103.321 198.175 104.376C198.502 105.291 198.511 106.314 198.199 107.332C197.959 108.124 197.657 108.896 197.299 109.642C198.775 109.246 200.175 108.607 201.44 107.751C201.692 107.579 201.993 107.495 202.297 107.512C202.601 107.529 202.891 107.646 203.121 107.845C203.352 108.043 203.509 108.313 203.57 108.61C203.63 108.908 203.59 109.217 203.455 109.489C203.223 109.963 203.013 110.601 203.325 110.922C203.562 111.168 203.996 111.14 204.304 110.986C204.906 110.684 205.326 110.113 205.755 109.02C205.955 108.518 206.385 108.132 206.912 107.997C207.176 107.929 207.452 107.923 207.719 107.982C207.985 108.04 208.235 108.16 208.446 108.332C209.682 109.332 211.356 109.815 212.906 109.625C213.806 109.504 214.668 109.181 215.424 108.679C216.181 108.177 216.813 107.51 217.271 106.728C217.347 106.595 217.449 106.479 217.57 106.386C217.691 106.293 217.83 106.225 217.977 106.185C218.125 106.145 218.279 106.135 218.431 106.155C218.583 106.175 218.729 106.224 218.862 106.3C219.421 106.621 219.612 107.332 219.29 107.885C218.031 110.066 215.694 111.619 213.19 111.93C211.23 112.165 209.249 111.695 207.606 110.605C207.164 111.53 206.492 112.492 205.35 113.069C204.062 113.715 202.574 113.501 201.641 112.539C201.179 112.064 200.896 111.445 200.839 110.786C199.228 111.582 197.493 112.101 195.708 112.32C193.875 114.863 191.357 116.927 188.446 118.177C188.319 118.233 188.183 118.265 188.044 118.271H188.054ZM195.074 104.437C194.765 104.46 194.468 104.566 194.215 104.743C193.627 105.143 193.18 105.817 192.7 106.529C192.578 106.71 192.457 106.891 192.336 107.062C192.112 107.383 191.841 107.881 191.827 108.42C191.813 109.029 192.032 109.313 192.201 109.471C192.625 109.871 193.447 110.094 194.416 110.085C195.081 109.014 195.604 107.862 195.974 106.658C196.137 106.128 196.137 105.594 195.983 105.157C195.782 104.594 195.499 104.501 195.405 104.469C195.297 104.437 195.185 104.424 195.074 104.432V104.437ZM221.893 32.3225L55.2238 40.7169C55.071 40.7245 54.9181 40.7021 54.774 40.6509C54.6298 40.5997 54.4972 40.5206 54.3837 40.4183C54.2702 40.316 54.178 40.1924 54.1124 40.0546C54.0469 39.9168 54.0091 39.7675 54.0015 39.6152C53.9938 39.4628 54.0163 39.3105 54.0677 39.1668C54.1191 39.0231 54.1984 38.891 54.301 38.7779C54.4037 38.6647 54.5277 38.5729 54.6659 38.5075C54.8042 38.4421 54.9541 38.4045 55.1069 38.3969L221.776 30.0015C221.929 29.9938 222.082 30.0162 222.226 30.0675C222.37 30.1187 222.503 30.1977 222.616 30.3C222.73 30.4023 222.822 30.5259 222.888 30.6637C222.953 30.8015 222.991 30.9509 222.999 31.1032C223.006 31.2555 222.984 31.4079 222.932 31.5515C222.881 31.6952 222.802 31.8274 222.699 31.9405C222.596 32.0536 222.472 32.1455 222.334 32.2109C222.196 32.2762 222.046 32.3148 221.893 32.3225ZM110.169 119.437L59.3468 121.999C59.194 122.006 59.0412 121.984 58.8971 121.933C58.753 121.881 58.6204 121.802 58.507 121.7C58.3935 121.598 58.3014 121.474 58.2358 121.337C58.1702 121.199 58.1325 121.05 58.1249 120.897C58.1172 120.745 58.1397 120.593 58.1911 120.449C58.2424 120.306 58.3217 120.173 58.4243 120.06C58.5269 119.947 58.6508 119.855 58.789 119.79C58.9273 119.725 59.077 119.687 59.2298 119.68L110.052 117.117C110.205 117.11 110.358 117.132 110.502 117.183C110.646 117.235 110.779 117.314 110.892 117.416C111.006 117.518 111.098 117.642 111.163 117.78C111.229 117.918 111.267 118.067 111.274 118.219C111.282 118.372 111.26 118.524 111.208 118.668C111.157 118.811 111.077 118.943 110.975 119.057C110.872 119.17 110.748 119.262 110.61 119.327C110.472 119.392 110.322 119.43 110.169 119.437Z" fill="#142641"/>
</g>
<g opacity="0.2">
<path d="M227.168 142.986L47.7327 133.585C42.0773 133.291 37.7198 128.442 38.0141 122.781L43.039 26.7434C43.3332 21.0813 48.177 16.7196 53.8325 17.0141L233.266 26.4158C238.923 26.7103 243.28 31.5579 242.986 37.22L237.965 133.258C237.671 138.919 232.828 143.28 227.172 142.986H227.168ZM53.7064 19.3522C49.34 19.1218 45.599 22.4938 45.3698 26.8696L40.3489 122.907C40.1207 127.278 43.4874 131.023 47.8588 131.252L227.294 140.654C231.66 140.882 235.401 137.512 235.63 133.136L240.65 37.0978C240.879 32.727 237.512 28.9823 233.14 28.7529L53.7064 19.3522Z" fill="#142641"/>
<path d="M82.1653 77.9778C73.3575 77.5157 66.561 69.9729 67.0221 61.1648C67.4852 52.3567 75.0278 45.561 83.8357 46.0221C92.6435 46.4843 99.439 54.0281 98.9779 62.8362C98.5158 71.6443 90.9732 78.4399 82.1653 77.9778ZM83.7146 48.3517C76.1901 47.9596 69.7487 53.762 69.3516 61.2858C68.9555 68.8106 74.7628 75.2521 82.2863 75.6492C89.8109 76.0413 96.2523 70.2389 96.6494 62.7141C97.0404 55.1903 91.2382 48.7488 83.7146 48.3517Z" fill="#142641"/>
<path d="M106.723 99.6493C106.415 99.6327 106.125 99.4934 105.918 99.262C105.711 99.0305 105.604 98.7258 105.619 98.4147C106.16 87.9667 95.7384 78.8983 82.3876 78.1889C69.0358 77.4805 57.7294 85.4118 57.1894 95.8558C57.1655 96.1614 57.0241 96.4456 56.7955 96.6478C56.5668 96.8499 56.2688 96.9541 55.9651 96.9381C55.6613 96.9221 55.3758 96.7872 55.1692 96.5621C54.9627 96.337 54.8515 96.0395 54.8594 95.733C55.4703 83.994 67.8708 75.0715 82.5084 75.8413C97.141 76.6121 108.554 86.7924 107.944 98.5324C107.928 98.8436 107.79 99.1356 107.56 99.3443C107.331 99.5529 107.028 99.6612 106.719 99.6453L106.723 99.6493ZM210.065 61.5193L124.254 56.9921C123.945 56.976 123.655 56.8368 123.448 56.6053C123.241 56.3737 123.134 56.0688 123.15 55.7575C123.166 55.4461 123.304 55.154 123.534 54.9453C123.763 54.7366 124.066 54.6284 124.375 54.6445L210.186 59.1717C210.486 59.1995 210.764 59.3434 210.961 59.5731C211.158 59.8028 211.26 60.1005 211.244 60.404C211.228 60.7074 211.097 60.993 210.877 61.2009C210.657 61.4088 210.366 61.5229 210.065 61.5193ZM209.39 78.0581L123.579 73.531C123.27 73.5148 122.98 73.3757 122.773 73.1441C122.566 72.9126 122.459 72.6076 122.475 72.2963C122.491 71.985 122.629 71.6928 122.859 71.4841C123.088 71.2754 123.391 71.1672 123.7 71.1834L209.511 75.7105C209.82 75.7267 210.109 75.8658 210.317 76.0974C210.524 76.3289 210.631 76.6339 210.615 76.9452C210.599 77.2565 210.461 77.5486 210.231 77.7574C210.001 77.9661 209.699 78.0743 209.39 78.0581ZM184.885 93.2023L122.744 89.9249C122.436 89.9087 122.146 89.7695 121.938 89.5379C121.731 89.3062 121.624 89.0011 121.64 88.6897C121.656 88.3783 121.794 88.086 122.024 87.8772C122.254 87.6684 122.556 87.5601 122.865 87.5763L185.006 90.8547C185.303 90.8875 185.576 91.0333 185.769 91.2624C185.962 91.4914 186.061 91.7862 186.045 92.0864C186.03 92.3866 185.901 92.6695 185.685 92.8769C185.469 93.0844 185.183 93.2008 184.885 93.2023ZM183.31 123.993C183.038 123.977 182.78 123.866 182.581 123.679C182.382 123.492 182.254 123.24 182.22 122.968C182.186 122.696 182.247 122.42 182.394 122.189C182.54 121.957 182.762 121.785 183.022 121.701C185.107 121.033 187.023 119.919 188.64 118.433C187.894 118.185 187.136 117.78 186.567 117.118C185.892 116.329 185.612 115.32 185.756 114.193C185.868 113.305 186.283 112.427 186.949 111.648C187.08 111.497 187.206 111.342 187.335 111.183C187.969 110.412 188.687 109.539 189.707 108.98C190.769 108.398 191.994 108.313 192.973 108.75C193.881 109.154 194.529 109.986 194.794 111.088C195.027 112.042 194.929 113.071 194.515 114.061C194.193 114.832 193.816 115.578 193.383 116.292C194.891 116.046 196.347 115.548 197.691 114.818C197.958 114.673 198.264 114.621 198.563 114.669C198.862 114.718 199.137 114.864 199.345 115.085C199.77 115.54 199.84 116.235 199.513 116.766C199.234 117.222 198.959 117.836 199.239 118.194C199.448 118.466 199.882 118.484 200.207 118.363C200.836 118.123 201.311 117.593 201.852 116.536C201.976 116.297 202.154 116.089 202.371 115.931C202.589 115.773 202.84 115.668 203.105 115.625C203.374 115.584 203.649 115.607 203.908 115.692C204.167 115.778 204.403 115.924 204.595 116.118C205.723 117.255 207.335 117.907 208.891 117.875C210.694 117.836 212.474 116.893 213.526 115.418C213.707 115.166 213.979 114.996 214.284 114.946C214.589 114.896 214.901 114.97 215.152 115.151C215.402 115.333 215.571 115.608 215.62 115.915C215.67 116.222 215.597 116.537 215.418 116.79C213.945 118.851 211.462 120.166 208.942 120.222C206.971 120.256 205.052 119.578 203.533 118.311C202.998 119.194 202.233 120.095 201.037 120.555C199.69 121.073 198.232 120.706 197.408 119.645C196.998 119.119 196.781 118.467 196.793 117.799C195.11 118.431 193.334 118.773 191.538 118.808C189.456 121.175 186.739 122.988 183.721 123.946C183.586 123.989 183.446 124.007 183.31 123.998V123.993ZM191.706 110.817C191.396 110.808 191.09 110.884 190.82 111.037C190.196 111.375 189.679 112.004 189.134 112.671C188.994 112.84 188.855 113.009 188.715 113.173C188.458 113.474 188.137 113.944 188.067 114.489C187.988 115.099 188.179 115.404 188.328 115.582C188.71 116.024 189.502 116.334 190.466 116.433C191.238 115.426 191.876 114.323 192.367 113.15C192.581 112.634 192.642 112.099 192.53 111.643C192.386 111.056 192.115 110.933 192.027 110.896C191.924 110.852 191.813 110.828 191.701 110.826L191.706 110.817ZM225.774 41.1295L59.3226 32.3489C59.0198 32.3246 58.7382 32.1822 58.5379 31.952C58.3375 31.7217 58.2341 31.4218 58.2497 31.1159C58.2653 30.81 58.3987 30.5224 58.6214 30.314C58.8441 30.1057 59.1387 29.9932 59.4424 30.0003L225.894 38.7819C226.047 38.7899 226.197 38.8282 226.335 38.8946C226.474 38.9609 226.598 39.0541 226.7 39.1688C226.803 39.2834 226.882 39.4173 226.933 39.5628C226.984 39.7082 227.006 39.8625 226.998 40.0166C226.99 40.1707 226.953 40.3218 226.887 40.4612C226.821 40.6005 226.728 40.7254 226.615 40.8288C226.501 40.9321 226.368 41.0119 226.224 41.0635C226.079 41.1151 225.926 41.1375 225.774 41.1295ZM105.815 117.123L55.06 114.446C54.7599 114.418 54.482 114.275 54.2847 114.045C54.0874 113.815 53.986 113.517 54.0016 113.214C54.0172 112.911 54.1487 112.625 54.3685 112.417C54.5883 112.209 54.8794 112.095 55.1808 112.099L105.937 114.775C106.09 114.783 106.239 114.822 106.378 114.888C106.516 114.955 106.64 115.048 106.742 115.163C106.845 115.277 106.924 115.411 106.975 115.557C107.026 115.702 107.048 115.856 107.04 116.011C107.032 116.165 106.994 116.316 106.928 116.455C106.862 116.594 106.77 116.719 106.656 116.823C106.542 116.926 106.41 117.006 106.265 117.057C106.121 117.109 105.968 117.131 105.815 117.123Z" fill="#142641"/>
</g>
<g opacity="0.3">
<path d="M228.097 140.997L48.9828 136.489C43.3383 136.349 38.8635 131.631 39.0032 125.975L41.4103 30.0033C41.55 24.3472 46.2584 19.8632 51.9029 20.0032L231.017 24.5103C236.662 24.6503 241.137 29.3683 240.997 35.0244L238.59 130.996C238.45 136.652 233.742 141.137 228.097 140.997ZM51.847 22.3312C47.4879 22.2192 43.8503 25.6863 43.7385 30.0593L41.3304 126.031C41.2187 130.399 44.6796 134.044 49.0427 134.156L228.157 138.664C232.516 138.776 236.154 135.308 236.265 130.936L238.674 34.9644C238.785 30.5963 235.324 26.9513 230.961 26.8393L51.847 22.3312Z" fill="#142641"/>
<path d="M82.5984 79.9959C73.7821 79.7759 66.786 72.4205 67.005 63.5989C67.224 54.7823 74.5802 47.786 83.4016 48.005C92.2179 48.224 99.214 55.5804 98.995 64.402C98.775 73.2237 91.4198 80.216 82.5984 79.9959ZM83.3456 50.3434C75.8124 50.1514 69.5294 56.1265 69.3434 63.6599C69.1513 71.1933 75.1263 77.4755 82.6594 77.6625C90.1926 77.8485 96.4746 71.8794 96.6616 64.346C96.8527 56.8126 90.8787 50.5295 83.3456 50.3434Z" fill="#142641"/>
<path d="M107.409 100.903C107.1 100.896 106.807 100.766 106.594 100.542C106.381 100.318 106.265 100.019 106.272 99.7093C106.534 89.3164 95.8684 80.5895 82.5004 80.2535C69.1324 79.9175 58.0438 88.0984 57.7822 98.4913C57.7697 98.7971 57.6378 99.0859 57.4148 99.2952C57.1918 99.5045 56.8956 99.6177 56.59 99.6104C56.2845 99.603 55.994 99.4757 55.7813 99.2559C55.5686 99.0361 55.4506 98.7414 55.4528 98.4353C55.7464 86.7544 67.9073 77.5555 82.5563 77.9255C97.2103 78.2935 108.891 88.0934 108.597 99.7743C108.59 100.084 108.46 100.377 108.236 100.591C108.012 100.805 107.713 100.921 107.404 100.913L107.409 100.903ZM209.706 60.2107L123.792 58.0507C123.483 58.0433 123.189 57.9132 122.976 57.6891C122.763 57.465 122.647 57.1653 122.654 56.8558C122.662 56.5463 122.792 56.2524 123.015 56.0388C123.239 55.8252 123.538 55.7093 123.847 55.7168L209.762 57.8767C210.064 57.8942 210.347 58.0285 210.552 58.2513C210.757 58.4741 210.867 58.7679 210.86 59.0708C210.853 59.3737 210.728 59.6619 210.513 59.8745C210.298 60.0872 210.008 60.2078 209.706 60.2107ZM209.473 76.6605L123.559 74.5006C123.257 74.4831 122.974 74.3488 122.769 74.126C122.564 73.9032 122.453 73.6094 122.46 73.3065C122.468 73.0036 122.592 72.7154 122.807 72.5028C123.023 72.2901 123.312 72.1695 123.615 72.1666L209.529 74.3266C209.838 74.334 210.131 74.4641 210.345 74.6882C210.558 74.9123 210.674 75.212 210.666 75.5215C210.659 75.8311 210.529 76.1249 210.305 76.3385C210.081 76.5521 209.782 76.668 209.473 76.6605ZM185.384 92.3734L123.168 90.8054C123.015 90.8017 122.864 90.7679 122.724 90.7058C122.584 90.6438 122.457 90.5547 122.352 90.4438C122.246 90.3328 122.163 90.2021 122.108 90.0591C122.053 89.9161 122.027 89.7636 122.03 89.6104C122.034 89.4571 122.068 89.3061 122.13 89.1659C122.192 89.0258 122.281 88.8992 122.391 88.7934C122.502 88.6876 122.633 88.6048 122.775 88.5495C122.918 88.4943 123.07 88.4677 123.223 88.4714L185.44 90.0394C185.742 90.0569 186.025 90.1912 186.23 90.4139C186.435 90.6367 186.546 90.9306 186.538 91.2334C186.531 91.5363 186.407 91.8245 186.191 92.0372C185.976 92.2499 185.686 92.3704 185.384 92.3734ZM184.638 123C184.366 122.991 184.105 122.887 183.901 122.706C183.698 122.525 183.563 122.278 183.522 122.009C183.48 121.739 183.534 121.463 183.674 121.229C183.814 120.995 184.032 120.818 184.289 120.727C186.356 120.007 188.244 118.846 189.82 117.325C189.069 117.101 188.296 116.719 187.713 116.075C187.019 115.309 186.712 114.315 186.824 113.191C186.912 112.309 187.304 111.422 187.947 110.629C188.073 110.475 188.198 110.316 188.324 110.157C188.939 109.373 189.633 108.487 190.635 107.903C191.683 107.297 192.899 107.18 193.892 107.586C194.809 107.964 195.481 108.771 195.775 109.859C196.03 110.801 195.96 111.823 195.574 112.822C195.274 113.597 194.915 114.347 194.502 115.067C196.004 114.781 197.448 114.246 198.775 113.485C199.038 113.332 199.344 113.271 199.645 113.31C199.947 113.35 200.226 113.489 200.44 113.705C200.655 113.921 200.791 114.203 200.829 114.505C200.866 114.807 200.803 115.113 200.648 115.375C200.382 115.832 200.122 116.453 200.41 116.798C200.629 117.064 201.062 117.069 201.38 116.938C201.999 116.681 202.46 116.145 202.977 115.076C203.215 114.586 203.672 114.236 204.207 114.138C204.475 114.09 204.75 114.105 205.011 114.183C205.271 114.261 205.51 114.399 205.708 114.586C206.863 115.683 208.495 116.289 210.05 116.215C211.853 116.126 213.606 115.146 214.621 113.648C214.707 113.522 214.817 113.413 214.945 113.329C215.072 113.245 215.215 113.187 215.366 113.159C215.516 113.13 215.67 113.131 215.819 113.163C215.969 113.194 216.111 113.254 216.237 113.34C216.364 113.426 216.472 113.536 216.556 113.664C216.64 113.792 216.697 113.935 216.726 114.086C216.755 114.236 216.753 114.391 216.722 114.54C216.691 114.69 216.631 114.833 216.545 114.959C215.129 117.05 212.683 118.422 210.162 118.543C208.21 118.641 206.258 118.007 204.702 116.793C204.189 117.685 203.448 118.599 202.264 119.089C200.931 119.64 199.465 119.313 198.612 118.282C198.188 117.772 197.952 117.131 197.945 116.467C196.279 117.141 194.512 117.529 192.717 117.615C190.701 120.023 188.035 121.894 185.038 122.93C184.907 122.974 184.768 122.996 184.629 122.995L184.638 123ZM192.675 109.681C192.366 109.684 192.062 109.768 191.795 109.924C191.18 110.279 190.682 110.918 190.15 111.595C190.015 111.767 189.88 111.94 189.745 112.103C189.498 112.407 189.191 112.887 189.135 113.424C189.074 114.035 189.27 114.334 189.429 114.502C189.82 114.931 190.621 115.216 191.59 115.286C192.332 114.263 192.941 113.15 193.402 111.973C193.603 111.455 193.65 110.918 193.524 110.47C193.365 109.891 193.09 109.775 193.002 109.742C192.898 109.702 192.787 109.681 192.675 109.681ZM224.858 39.528L58.2075 35.333C57.9021 35.3205 57.6139 35.1884 57.4049 34.965C57.1959 34.7417 57.0828 34.445 57.0902 34.139C57.0975 33.833 57.2246 33.5421 57.4441 33.329C57.6635 33.116 57.9578 32.9978 58.2634 33L224.914 37.195C225.213 37.2156 225.493 37.3512 225.696 37.5735C225.898 37.7957 226.007 38.0876 226 38.3882C225.992 38.6889 225.87 38.9752 225.657 39.1875C225.444 39.3998 225.158 39.5217 224.858 39.528ZM106.976 118.282L56.1567 117.003C56.0021 117.002 55.8492 116.97 55.707 116.909C55.5648 116.848 55.4361 116.76 55.3285 116.648C55.2209 116.537 55.1364 116.406 55.0801 116.261C55.0237 116.117 54.9966 115.963 55.0003 115.808C55.004 115.653 55.0385 115.501 55.1017 115.359C55.1649 115.218 55.2555 115.091 55.3684 114.985C55.4812 114.879 55.614 114.796 55.7589 114.742C55.9039 114.688 56.0581 114.664 56.2127 114.67L107.032 115.949C107.187 115.95 107.339 115.982 107.482 116.043C107.624 116.104 107.752 116.193 107.86 116.304C107.968 116.415 108.052 116.547 108.109 116.691C108.165 116.835 108.192 116.989 108.188 117.144C108.185 117.299 108.15 117.451 108.087 117.593C108.024 117.734 107.933 117.862 107.82 117.968C107.707 118.073 107.575 118.156 107.43 118.21C107.285 118.264 107.13 118.288 106.976 118.282Z" fill="#142641"/>
</g>
<path d="M239.717 153.996H36.2832C30.6155 153.996 26 149.422 26 143.796V22.2005C26 16.5784 30.6105 12 36.2832 12H239.717C245.384 12 250 16.5744 250 22.2005V143.799C250 149.422 245.388 154 239.717 154V153.996ZM36.2832 14.324C31.9012 14.324 28.3378 17.8587 28.3378 22.2055V143.799C28.3378 148.146 31.9012 151.681 36.2832 151.681H239.717C244.098 151.681 247.661 148.146 247.661 143.799V22.2005C247.661 17.8547 244.098 14.32 239.717 14.32H36.2832V14.324Z" fill="#F43F5E"/>
<path d="M138.103 175.501L140.666 172.937C140.771 172.831 140.855 172.707 140.912 172.569C140.97 172.431 140.999 172.284 140.999 172.135C140.999 171.986 140.97 171.838 140.912 171.7C140.855 171.563 140.771 171.438 140.666 171.333C140.561 171.227 140.436 171.144 140.298 171.086C140.161 171.029 140.013 171 139.864 171C139.715 171 139.568 171.029 139.43 171.086C139.293 171.144 139.168 171.227 139.063 171.333L136.5 173.897L133.937 171.333C133.832 171.227 133.707 171.144 133.57 171.086C133.432 171.029 133.285 171 133.136 171C132.987 171 132.839 171.029 132.702 171.086C132.564 171.144 132.439 171.227 132.334 171.333C132.229 171.438 132.145 171.563 132.088 171.7C132.03 171.838 132.001 171.986 132.001 172.135C132.001 172.284 132.03 172.431 132.088 172.569C132.145 172.707 132.229 172.831 132.334 172.937L134.897 175.501L132.334 178.066C132.175 178.224 132.066 178.426 132.022 178.646C131.978 178.866 132 179.095 132.086 179.302C132.172 179.51 132.318 179.687 132.505 179.811C132.692 179.935 132.911 180.001 133.136 180C133.425 180 133.715 179.891 133.937 179.67L136.5 177.105L139.063 179.67C139.285 179.891 139.575 180 139.864 180C140.089 180.001 140.308 179.935 140.495 179.811C140.682 179.687 140.828 179.51 140.914 179.302C141 179.095 141.022 178.866 140.978 178.646C140.934 178.426 140.825 178.224 140.666 178.066L138.103 175.501Z" fill="white"/>
</svg>
